<svg width="82" height="20" viewBox="0 0 82 20" fill="none" xmlns="http://www.w3.org/2000/svg">
<path d="M10.5914 4.96H5.64141V7.75H9.63141V11.71H5.64141V19H0.511406V0.369998H10.8914L10.5914 4.96ZM17.3044 12.88C17.3044 13.5 17.4344 13.96 17.6944 14.26C17.9544 14.56 18.3744 14.71 18.9544 14.71C19.5544 14.71 19.9644 14.57 20.1844 14.29C20.4244 13.99 20.5444 13.51 20.5444 12.85V0.369998H25.7044V13.15C25.7044 15.29 25.1144 16.85 23.9344 17.83C22.7744 18.81 21.0544 19.3 18.7744 19.3C16.5144 19.3 14.8244 18.82 13.7044 17.86C12.6044 16.88 12.0544 15.33 12.0544 13.21V0.369998H17.3044V12.88ZM41.9334 19H37.0134L33.1434 10.33H32.9034V19H28.3434V0.369998H33.4134L37.1034 9.31H37.3434V0.369998H41.9334V19ZM55.7939 5.92C53.8739 5.34 52.4639 5.05 51.5639 5.05C50.6839 5.05 50.0739 5.44 49.7339 6.22C49.4139 7 49.2539 8.24 49.2539 9.94C49.2539 11.62 49.4039 12.85 49.7039 13.63C50.0239 14.39 50.6639 14.77 51.6239 14.77C51.9039 14.77 52.4439 14.69 53.2439 14.53V12.25H51.8939V8.71H57.6239V19H54.0839L53.6039 18.04H53.4839C53.1439 18.32 52.8739 18.53 52.6739 18.67C52.1139 19.09 51.3239 19.3 50.3039 19.3C46.1239 19.3 44.0339 16.14 44.0339 9.82C44.0339 6.66 44.5839 4.25 45.6839 2.59C46.7839 0.909999 48.6339 0.0699987 51.2339 0.0699987C53.3139 0.0699987 55.1039 0.389999 56.6039 1.03L55.7939 5.92ZM69.6105 19H60.1305V0.369998H65.2605V14.83H69.9105L69.6105 19ZM81.0797 19H70.9997V0.369998H81.3797L81.0797 4.96H76.1297V7.75H80.4197V11.71H76.1297V14.8H81.3797L81.0797 19Z" fill="#141E8E"/>
</svg>
