<svg width="98" height="33" viewBox="0 0 98 33" fill="none" xmlns="http://www.w3.org/2000/svg">
<path d="M19.0914 10.96H14.1414V13.75H18.1314V17.71H14.1414V25H9.01141V6.37H19.3914L19.0914 10.96ZM25.8044 18.88C25.8044 19.5 25.9344 19.96 26.1944 20.26C26.4544 20.56 26.8744 20.71 27.4544 20.71C28.0544 20.71 28.4644 20.57 28.6844 20.29C28.9244 19.99 29.0444 19.51 29.0444 18.85V6.37H34.2044V19.15C34.2044 21.29 33.6144 22.85 32.4344 23.83C31.2744 24.81 29.5544 25.3 27.2744 25.3C25.0144 25.3 23.3244 24.82 22.2044 23.86C21.1044 22.88 20.5544 21.33 20.5544 19.21V6.37H25.8044V18.88ZM50.4334 25H45.5134L41.6434 16.33H41.4034V25H36.8434V6.37H41.9134L45.6034 15.31H45.8434V6.37H50.4334V25ZM64.2939 11.92C62.3739 11.34 60.9639 11.05 60.0639 11.05C59.1839 11.05 58.5739 11.44 58.2339 12.22C57.9139 13 57.7539 14.24 57.7539 15.94C57.7539 17.62 57.9039 18.85 58.2039 19.63C58.5239 20.39 59.1639 20.77 60.1239 20.77C60.4039 20.77 60.9439 20.69 61.7439 20.53V18.25H60.3939V14.71H66.1239V25H62.5839L62.1039 24.04H61.9839C61.6439 24.32 61.3739 24.53 61.1739 24.67C60.6139 25.09 59.8239 25.3 58.8039 25.3C54.6239 25.3 52.5339 22.14 52.5339 15.82C52.5339 12.66 53.0839 10.25 54.1839 8.59C55.2839 6.91 57.1339 6.07 59.7339 6.07C61.8139 6.07 63.6039 6.39 65.1039 7.03L64.2939 11.92ZM78.1105 25H68.6305V6.37H73.7605V20.83H78.4105L78.1105 25ZM89.5797 25H79.4997V6.37H89.8797L89.5797 10.96H84.6297V13.75H88.9197V17.71H84.6297V20.8H89.8797L89.5797 25Z" fill="#F5F5F5"/>
</svg>
