<svg width="180" height="222" viewBox="0 0 180 222" fill="none" xmlns="http://www.w3.org/2000/svg">
<path d="M89 165.5C81 184 104 226.5 60 202.5C47.8497 202.5 43 189.5 43 165.5C43 146.5 46.5 128 60 137C73.5 140.5 92 144 89 165.5Z" fill="#6EFF30"/>
<path d="M95 167.5C95 188 81.5 226 120.465 200C145 198 136 187.106 136 167.5C136 147.894 143 128.5 117.5 139.5C105.35 139.5 88.5 146 95 167.5Z" fill="#6EFF30"/>
<path d="M140.33 137.117C140.33 134.6 140.33 133.342 140.68 132.217C141.68 128.958 144.346 127.692 147.005 126.367C149.996 124.867 151.496 124.125 152.971 124C154.654 123.847 156.34 124.241 157.78 125.125C159.696 126.292 161.021 128.525 162.38 130.333C168.671 138.683 171.813 142.858 172.963 147.467C173.892 151.182 173.892 155.068 172.963 158.783C171.288 165.5 165.988 171.125 162.063 176.342C160.055 179.008 159.046 180.342 157.78 181.117C156.341 182.003 154.655 182.401 152.971 182.25C151.496 182.117 149.996 181.367 147.005 179.883C144.338 178.55 141.688 177.292 140.671 174.025C140.33 172.9 140.33 171.642 140.33 169.125V137.117ZM40.3298 137.125C40.3298 133.95 40.2465 131.1 37.9048 128.867C37.0465 128.058 35.9131 127.492 33.6548 126.367C30.6548 124.875 29.1631 124.133 27.6798 124C23.2381 123.608 20.8465 126.925 18.2798 130.333C11.9881 138.683 8.84647 142.858 7.69647 147.467C6.76784 151.182 6.76784 155.068 7.69647 158.783C9.36313 165.5 14.6715 171.125 18.5965 176.342C21.0715 179.625 23.4298 182.625 27.6798 182.242C29.1631 182.117 30.6631 181.367 33.6548 179.875C35.9131 178.75 37.0465 178.192 37.9048 177.375C40.2465 175.15 40.3215 172.292 40.3215 169.125L40.3298 137.125Z" stroke="#141E8E" stroke-width="12.5" stroke-linecap="round" stroke-linejoin="round"/>
<path d="M157.333 123.967V114.583C157.333 78.3667 127.475 49 90.6667 49C53.8583 49 24 78.3667 24 114.583V123.958M90.65 144.5C80.2667 139 57.3167 129.658 46.7833 132.5C44.7833 133.333 40.65 136.208 40.65 145.825L41.45 195.633C41.5 198.717 43.8833 201.242 46.9 201.667C57.175 203.117 74.6667 207.283 90.65 215.667M90.65 144.5V215.667M90.65 144.5C101.025 139 123.983 129.658 134.517 132.5C136.517 133.333 140.65 136.208 140.65 145.825L139.858 195.633C139.812 197.122 139.239 198.545 138.241 199.65C137.243 200.755 135.884 201.47 134.408 201.667C124.133 203.117 106.633 207.283 90.65 215.667" stroke="#141E8E" stroke-width="12.5" stroke-linecap="round" stroke-linejoin="round"/>
<path d="M79.7878 99.854C84.7579 105.777 85.7001 113.169 81.8925 116.364C78.0848 119.559 70.9691 117.347 65.999 111.424C61.029 105.501 60.0867 98.1095 63.8944 94.9144C67.7021 91.7194 74.8178 93.9309 79.7878 99.854Z" fill="black"/>
<path d="M117.788 111.295C112.818 117.218 105.702 119.429 101.894 116.234C98.0867 113.039 99.029 105.648 103.999 99.7246C108.969 93.8016 116.085 91.5901 119.892 94.7851C123.7 97.9801 122.758 105.372 117.788 111.295Z" fill="black"/>
<circle cx="77.9126" cy="111" r="3" fill="white"/>
<path d="M108 111C108 112.657 106.657 114 105 114C103.343 114 102 112.657 102 111C102 109.343 103.343 108 105 108C106.657 108 108 109.343 108 111Z" fill="white"/>
<rect x="35.6313" y="28.0778" width="15" height="38.5455" transform="rotate(-31.9605 35.6313 28.0778)" fill="#141E8E"/>
<circle cx="39.9505" cy="18.9504" r="15" transform="rotate(8.03952 39.9505 18.9504)" fill="#141E8E"/>
<circle cx="40.5156" cy="18.5253" r="7.5" transform="rotate(8.03952 40.5156 18.5253)" fill="#53FF95"/>
<rect x="131.505" y="20" width="15" height="38.5455" transform="rotate(32.1389 131.505 20)" fill="#141E8E"/>
<circle cx="141.324" cy="18.8777" r="15" transform="rotate(72.1389 141.324 18.8777)" fill="#141E8E"/>
<circle cx="141.162" cy="18.4389" r="7.5" transform="rotate(72.1389 141.162 18.4389)" fill="#EDFF4A"/>
<path d="M140.33 137.117C140.33 134.6 140.33 133.342 140.68 132.217C141.68 128.958 144.346 127.692 147.005 126.367C149.996 124.867 151.496 124.125 152.971 124C154.654 123.847 156.34 124.241 157.78 125.125C159.696 126.292 161.021 128.525 162.38 130.333C168.671 138.683 171.813 142.858 172.963 147.467C173.892 151.182 173.892 155.068 172.963 158.783C171.288 165.5 165.988 171.125 162.063 176.342C160.055 179.008 159.046 180.342 157.78 181.117C156.341 182.003 154.655 182.401 152.971 182.25C151.496 182.117 149.996 181.367 147.005 179.883C144.338 178.55 141.688 177.292 140.671 174.025C140.33 172.9 140.33 171.642 140.33 169.125V137.117ZM40.3298 137.125C40.3298 133.95 40.2465 131.1 37.9048 128.867C37.0465 128.058 35.9131 127.492 33.6548 126.367C30.6548 124.875 29.1631 124.133 27.6798 124C23.2381 123.608 20.8465 126.925 18.2798 130.333C11.9881 138.683 8.84647 142.858 7.69647 147.467C6.76784 151.182 6.76784 155.068 7.69647 158.783C9.36313 165.5 14.6715 171.125 18.5965 176.342C21.0715 179.625 23.4298 182.625 27.6798 182.242C29.1631 182.117 30.6631 181.367 33.6548 179.875C35.9131 178.75 37.0465 178.192 37.9048 177.375C40.2465 175.15 40.3215 172.292 40.3215 169.125L40.3298 137.125Z" stroke="#141E8E" stroke-width="12.5" stroke-linecap="round" stroke-linejoin="round"/>
<path d="M157.333 123.967V114.583C157.333 78.3667 127.475 49 90.6667 49C53.8583 49 24 78.3667 24 114.583V123.958M90.65 144.5C80.2667 139 57.3167 129.658 46.7833 132.5C44.7833 133.333 40.65 136.208 40.65 145.825L41.45 195.633C41.5 198.717 43.8833 201.242 46.9 201.667C57.175 203.117 74.6667 207.283 90.65 215.667M90.65 144.5V215.667M90.65 144.5C101.025 139 123.983 129.658 134.517 132.5C136.517 133.333 140.65 136.208 140.65 145.825L139.858 195.633C139.812 197.122 139.239 198.545 138.241 199.65C137.243 200.755 135.884 201.47 134.408 201.667C124.133 203.117 106.633 207.283 90.65 215.667" stroke="#141E8E" stroke-width="12.5" stroke-linecap="round" stroke-linejoin="round"/>
<path d="M79.7878 99.854C84.7579 105.777 85.7001 113.169 81.8925 116.364C78.0848 119.559 70.9691 117.347 65.999 111.424C61.029 105.501 60.0867 98.1095 63.8944 94.9144C67.7021 91.7194 74.8178 93.9309 79.7878 99.854Z" fill="black"/>
<path d="M117.788 111.295C112.818 117.218 105.702 119.429 101.894 116.234C98.0867 113.039 99.029 105.648 103.999 99.7246C108.969 93.8016 116.085 91.5901 119.892 94.7851C123.7 97.9801 122.758 105.372 117.788 111.295Z" fill="black"/>
<circle cx="77.9126" cy="111" r="3" fill="#6EFF30"/>
<path d="M108 111C108 112.657 106.657 114 105 114C103.343 114 102 112.657 102 111C102 109.343 103.343 108 105 108C106.657 108 108 109.343 108 111Z" fill="#6EFF30"/>
<rect x="35.6313" y="28.0778" width="15" height="38.5455" transform="rotate(-31.9605 35.6313 28.0778)" fill="#141E8E"/>
<circle cx="39.9505" cy="18.9504" r="15" transform="rotate(8.03952 39.9505 18.9504)" fill="#141E8E"/>
<circle cx="40.5156" cy="18.5253" r="7.5" transform="rotate(8.03952 40.5156 18.5253)" fill="#6EFF30"/>
<rect x="131.505" y="20" width="15" height="38.5455" transform="rotate(32.1389 131.505 20)" fill="#141E8E"/>
<circle cx="141.324" cy="18.8777" r="15" transform="rotate(72.1389 141.324 18.8777)" fill="#141E8E"/>
<circle cx="141.162" cy="18.4389" r="7.5" transform="rotate(72.1389 141.162 18.4389)" fill="#6EFF30"/>
</svg>
