<svg width="72" height="72" viewBox="0 0 72 72" fill="none" xmlns="http://www.w3.org/2000/svg">
<path d="M51 24.63C59.967 26.799 66 30.843 66 35.478C66 42.393 52.569 48 36 48C19.431 48 6 42.39 6 35.478C6 30.843 12.033 26.799 21 24.633" stroke="#141E8E" stroke-width="6.25"/>
<path d="M21 26.187C21.0008 22.4246 22.4957 18.8166 25.1562 16.1562C27.8166 13.4957 31.4246 12.0008 35.187 12H36.813C40.5754 12.0008 44.1834 13.4957 46.8438 16.1562C49.5043 18.8166 50.9992 22.4246 51 26.187C51 26.718 50.838 27.237 50.4 27.54C49.158 28.404 45.57 30 36 30C26.43 30 22.842 28.404 21.6 27.54C21.162 27.24 21 26.718 21 26.187Z" stroke="#141E8E" stroke-width="6.25"/>
<path d="M36 48V57M16.5 46.5L13.5 52.5M55.5 46.5L58.5 52.5" stroke="#141E8E" stroke-width="6.25" stroke-linecap="round"/>
<path d="M36.9167 39C36.9167 39.5063 36.5063 39.9167 36 39.9167C35.4937 39.9167 35.0833 39.5063 35.0833 39C35.0833 38.4937 35.4937 38.0833 36 38.0833C36.5063 38.0833 36.9167 38.4937 36.9167 39Z" fill="black" stroke="#141E8E" stroke-width="4.16667"/>
<path d="M21.9167 36C21.9167 36.5063 21.5063 36.9167 21 36.9167C20.4937 36.9167 20.0833 36.5063 20.0833 36C20.0833 35.4937 20.4937 35.0833 21 35.0833C21.5063 35.0833 21.9167 35.4937 21.9167 36Z" fill="black" stroke="#141E8E" stroke-width="4.16667"/>
<path d="M51.9167 36C51.9167 36.5063 51.5063 36.9167 51 36.9167C50.4937 36.9167 50.0833 36.5063 50.0833 36C50.0833 35.4937 50.4937 35.0833 51 35.0833C51.5063 35.0833 51.9167 35.4937 51.9167 36Z" fill="black" stroke="#141E8E" stroke-width="4.16667"/>
</svg>
