<svg width="30" height="30" viewBox="0 0 30 30" fill="none" xmlns="http://www.w3.org/2000/svg">
<path d="M23.75 4.06259H8.4375C7.63391 4.039 6.85375 4.33495 6.26798 4.88557C5.68221 5.4362 5.33862 6.19658 5.3125 7.00009V22.5001C5.34511 23.4429 5.75033 24.3342 6.43928 24.9787C7.12822 25.6231 8.04463 25.9679 8.9875 25.9376H23.75C23.9976 25.9344 24.2342 25.8345 24.4093 25.6594C24.5845 25.4843 24.6843 25.2477 24.6875 25.0001V5.00009C24.6843 4.75245 24.5845 4.51587 24.4093 4.34076C24.2342 4.16564 23.9976 4.06583 23.75 4.06259ZM22.8125 24.0626H8.9875C8.54173 24.0935 8.10189 23.9464 7.76445 23.6535C7.42702 23.3606 7.21953 22.9458 7.1875 22.5001C7.21953 22.0544 7.42702 21.6396 7.76445 21.3467C8.10189 21.0538 8.54173 20.9067 8.9875 20.9376H22.8125V24.0626ZM22.8125 19.0626H8.9875C8.3582 19.0633 7.73919 19.2223 7.1875 19.5251V7.00009C7.21613 6.69495 7.36285 6.41307 7.59637 6.21457C7.8299 6.01608 8.13173 5.91668 8.4375 5.93759H22.8125V19.0626Z" fill="#F5F5F5"/>
<path d="M10.9375 10.9375H19.0625C19.3111 10.9375 19.5496 10.8387 19.7254 10.6629C19.9012 10.4871 20 10.2486 20 10C20 9.75136 19.9012 9.5129 19.7254 9.33709C19.5496 9.16127 19.3111 9.0625 19.0625 9.0625H10.9375C10.6889 9.0625 10.4504 9.16127 10.2746 9.33709C10.0988 9.5129 10 9.75136 10 10C10 10.2486 10.0988 10.4871 10.2746 10.6629C10.4504 10.8387 10.6889 10.9375 10.9375 10.9375ZM10.9375 15.3125H19.0625C19.3111 15.3125 19.5496 15.2137 19.7254 15.0379C19.9012 14.8621 20 14.6236 20 14.375C20 14.1264 19.9012 13.8879 19.7254 13.7121C19.5496 13.5363 19.3111 13.4375 19.0625 13.4375H10.9375C10.6889 13.4375 10.4504 13.5363 10.2746 13.7121C10.0988 13.8879 10 14.1264 10 14.375C10 14.6236 10.0988 14.8621 10.2746 15.0379C10.4504 15.2137 10.6889 15.3125 10.9375 15.3125Z" fill="#F5F5F5"/>
</svg>
