<svg width="20" height="20" viewBox="0 0 20 20" fill="none" xmlns="http://www.w3.org/2000/svg">
<path d="M14.1666 10.8333H10.8333V14.1667H9.16663V10.8333H5.83329V9.16666H9.16663V5.83333H10.8333V9.16666H14.1666M9.99996 1.66666C8.90561 1.66666 7.82198 1.88221 6.81093 2.301C5.79988 2.71979 4.88122 3.33362 4.1074 4.10744C2.5446 5.67024 1.66663 7.78986 1.66663 10C1.66663 12.2101 2.5446 14.3298 4.1074 15.8926C4.88122 16.6664 5.79988 17.2802 6.81093 17.699C7.82198 18.1178 8.90561 18.3333 9.99996 18.3333C12.2101 18.3333 14.3297 17.4554 15.8925 15.8926C17.4553 14.3298 18.3333 12.2101 18.3333 10C18.3333 8.90565 18.1177 7.82201 17.699 6.81097C17.2802 5.79992 16.6663 4.88126 15.8925 4.10744C15.1187 3.33362 14.2 2.71979 13.189 2.301C12.1779 1.88221 11.0943 1.66666 9.99996 1.66666Z" fill="#141E8E"/>
</svg>
