<svg width="30" height="24" viewBox="0 0 30 24" fill="none" xmlns="http://www.w3.org/2000/svg">
<rect x="1" y="1" width="28" height="22" stroke="#F5F5F5" stroke-width="2"/>
<path d="M13.8525 7.92969H14.7314V12.6074C14.7314 14.0625 13.6475 15.127 11.9775 15.127C10.3076 15.127 9.22363 14.0625 9.22363 12.6074V7.92969H10.1025V12.5391C10.1025 13.5645 10.8154 14.3066 11.9775 14.3066C13.1494 14.3066 13.8525 13.5645 13.8525 12.5391V7.92969ZM16.2939 15V7.92969H18.6963C20.3564 7.92969 21.1084 8.91602 21.1084 10.1758C21.1084 11.4258 20.3564 12.4316 18.7061 12.4316H17.1729V15H16.2939ZM17.1729 11.6504H18.667C19.79 11.6504 20.2393 11.0156 20.2393 10.1758C20.2393 9.32617 19.79 8.71094 18.6572 8.71094H17.1729V11.6504Z" fill="#F5F5F5"/>
</svg>
