<svg width="324" height="188" viewBox="0 0 324 188" fill="none" xmlns="http://www.w3.org/2000/svg">
<rect width="324" height="188" rx="20" fill="url(#paint0_linear_691_1270)"/>
<path d="M265.428 43C249.228 43 235.477 54.613 233.162 70.2685L233.159 70.2961L232.433 76.6875H224.74C221.408 76.6875 219.757 80.73 222.094 83.0697L230.724 91.6937L227.218 122.524C226.584 126.769 229.438 131.139 233.983 131.711C235.809 131.946 237.666 131.766 239.413 131.185C241.161 130.603 242.755 129.635 244.077 128.352C245.799 126.701 248.092 125.779 250.477 125.779C252.863 125.779 255.156 126.701 256.878 128.352C261.588 132.943 269.235 132.943 273.948 128.352C275.67 126.702 277.963 125.781 280.347 125.781C282.732 125.781 285.025 126.702 286.746 128.352C287.947 129.514 289.373 130.418 290.936 131.008C292.499 131.599 294.167 131.863 295.836 131.785H295.839C300.69 131.561 304.291 127.188 303.609 122.466L300.108 91.5896L308.631 83.0697C310.971 80.73 309.317 76.6875 305.988 76.6875H298.424L297.698 70.2961L297.692 70.2716C295.413 54.6099 281.626 43 265.428 43Z" fill="#9B9B9B"/>
<path d="M235.165 79.75L236.197 70.6942C238.292 56.6067 250.698 46.0625 265.428 46.0625C280.159 46.0625 292.593 56.6067 294.66 70.6911L295.686 79.75H305.988C306.576 79.75 306.885 80.485 306.466 80.9015L296.902 90.4688L300.571 122.861L300.574 122.888C301.005 125.81 298.764 128.585 295.701 128.726C294.449 128.785 293.199 128.589 292.026 128.147C290.853 127.706 289.783 127.029 288.881 126.159C284.171 121.568 276.524 121.568 271.811 126.159C270.089 127.809 267.796 128.73 265.412 128.73C263.027 128.73 260.734 127.809 259.012 126.159C254.299 121.568 246.655 121.568 241.942 126.159C240.95 127.122 239.753 127.848 238.441 128.284C237.13 128.72 235.736 128.854 234.365 128.677C231.689 128.337 229.833 125.681 230.249 122.956L230.252 122.925L233.934 90.579L224.259 80.9046C223.843 80.4881 224.149 79.7531 224.74 79.7531L235.165 79.75Z" fill="white"/>
<path d="M280.637 75.1562H250.012C250.012 75.1562 250.012 90.4688 265.324 90.4688C280.637 90.4688 280.637 75.1562 280.637 75.1562Z" fill="#89029C"/>
<path d="M276.313 87.5839L276.855 84.8736C277.049 83.9058 276.863 82.9005 276.335 82.0662C275.808 81.232 274.979 80.6328 274.022 80.3931C268.311 78.9643 262.337 78.9643 256.627 80.3931C255.669 80.6328 254.841 81.232 254.313 82.0662C253.786 82.9005 253.6 83.9058 253.794 84.8736L254.336 87.5839C254.847 90.1217 256.221 92.4044 258.224 94.0443C260.227 95.6842 262.736 96.5803 265.324 96.5803C267.913 96.5803 270.422 95.6842 272.425 94.0443C274.428 92.4044 275.802 90.1217 276.313 87.5839Z" fill="#F70A8D"/>
<path d="M252.229 60.006C252.048 59.9087 251.85 59.8486 251.646 59.8293C251.442 59.8101 251.236 59.832 251.04 59.8938C250.845 59.9557 250.664 60.0562 250.508 60.1893C250.352 60.3225 250.224 60.4856 250.133 60.669C250.041 60.8524 249.987 61.0524 249.974 61.2571C249.961 61.4617 249.989 61.6669 250.057 61.8604C250.125 62.054 250.231 62.2319 250.369 62.3836C250.507 62.5354 250.674 62.6579 250.86 62.7439L254.244 64.4375L250.86 66.131C250.674 66.217 250.507 66.3396 250.369 66.4913C250.231 66.6431 250.125 66.821 250.057 67.0145C249.989 67.2081 249.961 67.4132 249.974 67.6179C249.987 67.8225 250.041 68.0225 250.133 68.2059C250.224 68.3894 250.352 68.5525 250.508 68.6857C250.664 68.8188 250.845 68.9193 251.04 68.9811C251.236 69.043 251.442 69.0649 251.646 69.0456C251.85 69.0263 252.048 68.9663 252.229 68.8689L258.354 65.8064C258.608 65.6791 258.822 65.4836 258.971 65.2419C259.12 65.0001 259.199 64.7216 259.199 64.4375C259.199 64.1534 259.12 63.8748 258.971 63.6331C258.822 63.3913 258.608 63.1959 258.354 63.0685L252.229 60.006ZM280.637 64.4375C280.637 65.6558 280.153 66.8243 279.291 67.6858C278.43 68.5473 277.261 69.0312 276.043 69.0312C274.825 69.0312 273.656 68.5473 272.795 67.6858C271.933 66.8243 271.449 65.6558 271.449 64.4375C271.449 63.2191 271.933 62.0507 272.795 61.1892C273.656 60.3277 274.825 59.8437 276.043 59.8437C277.261 59.8437 278.43 60.3277 279.291 61.1892C280.153 62.0507 280.637 63.2191 280.637 64.4375Z" fill="#321B41"/>
<path d="M34.4102 84.0234V101.836H31.8906V84.0234H34.4102ZM24.7617 85.2734C27.4375 85.2734 29.4297 87.7344 29.4297 91.6016C29.4297 95.5078 27.4375 97.9492 24.7617 97.9492C22.0273 97.9492 20.0352 95.5078 20.0547 91.6016C20.0352 87.7344 22.0273 85.2734 24.7617 85.2734ZM24.7617 87.5195C23.375 87.5195 22.457 88.9648 22.457 91.6016C22.457 94.2578 23.375 95.6836 24.7617 95.6836C26.1094 95.6836 27.0273 94.2578 27.0273 91.6016C27.0273 88.9648 26.1094 87.5195 24.7617 87.5195ZM45.3867 86.7383V88.7109H36.793V86.7383H39.8789V84.5117H42.3398V86.7383H45.3867ZM41.1289 89.5117C43.3945 89.5117 45.0156 91.2695 45.0352 93.7305C45.0156 96.2109 43.3945 97.9688 41.1289 97.9688C38.8633 97.9688 37.2031 96.2109 37.2031 93.7305C37.2031 91.2695 38.8633 89.5117 41.1289 89.5117ZM41.1289 91.582C40.0938 91.582 39.3906 92.3828 39.3906 93.7305C39.3906 95.0781 40.0938 95.8594 41.1289 95.8594C42.125 95.8594 42.8281 95.0781 42.8477 93.7305C42.8281 92.3828 42.125 91.582 41.1289 91.582ZM52.1836 84.0234V101.797H49.8203V93.2422H48.375V101.035H46.0508V84.375H48.375V91.25H49.8203V84.0234H52.1836ZM68.1211 84.0234V90.9766H70.7383V93.0273H68.1211V101.797H65.6602V84.0234H68.1211ZM64.4492 86.6797V88.6719H54V86.6797H58.0234V84.2969H60.5234V86.6797H64.4492ZM59.2734 89.668C61.8711 89.668 63.8047 91.4258 63.8047 93.9062C63.8047 96.3867 61.8711 98.1445 59.2734 98.1445C56.6562 98.1445 54.7227 96.3867 54.7227 93.9062C54.7227 91.4258 56.6562 89.668 59.2734 89.668ZM59.2734 91.6797C58.0234 91.6992 57.1055 92.5391 57.1055 93.9062C57.1055 95.293 58.0234 96.1133 59.2734 96.0938C60.5234 96.1133 61.4219 95.293 61.4219 93.9062C61.4219 92.5391 60.5234 91.6992 59.2734 91.6797ZM80.5625 85.4688V86.8164H83.8828V84.043H86.3633V96.9727H83.8828V92.6172H80.5625V94.1211H72.125V85.4688H80.5625ZM74.6055 87.4414V92.1875H78.1211V87.4414H74.6055ZM86.7344 99.4922V101.484H74.5273V95.7422H77.0469V99.4922H86.7344ZM80.5625 90.6445H83.8828V88.8281H80.5625V90.6445ZM109.547 97.6758V99.668H93.2773V97.6758H100.074V93.6523H102.555V97.6758H109.547ZM102.633 86.3086C102.633 88.8477 104.918 91.5234 108.98 92.1484L107.926 94.2188C104.801 93.6523 102.477 91.9824 101.305 89.7656C100.133 91.9727 97.8281 93.6621 94.7227 94.2188L93.668 92.1484C97.6914 91.5234 99.957 88.8281 99.9766 86.3086V85.0391H102.633V86.3086ZM126.812 92.9883V94.9609H110.543V92.9883H126.812ZM124.84 84.3555V89.1016H115.055V90.1367H125.172V92.0312H112.574V87.3047H122.34V86.2695H112.535V84.3555H124.84ZM124.918 96.0547V101.602H112.633V96.0547H124.918ZM115.074 98.0273V99.6094H122.438V98.0273H115.074ZM142.73 84.0234V101.836H140.211V84.0234H142.73ZM133.082 85.2734C135.758 85.2734 137.75 87.7344 137.75 91.6016C137.75 95.5078 135.758 97.9492 133.082 97.9492C130.348 97.9492 128.355 95.5078 128.375 91.6016C128.355 87.7344 130.348 85.2734 133.082 85.2734ZM133.082 87.5195C131.695 87.5195 130.777 88.9648 130.777 91.6016C130.777 94.2578 131.695 95.6836 133.082 95.6836C134.43 95.6836 135.348 94.2578 135.348 91.6016C135.348 88.9648 134.43 87.5195 133.082 87.5195ZM156.754 91.25V92.6367C158.219 92.5586 159.684 92.4414 161.07 92.2461L161.227 94.0234C157.301 94.707 153.121 94.7656 149.84 94.7656L149.527 92.7734C150.953 92.7734 152.574 92.7734 154.254 92.7344V91.25H156.754ZM155.25 84.7266V86.7188H154.41C154.449 87.4902 154.801 88.291 155.504 88.9062C156.178 88.291 156.529 87.4902 156.598 86.7188H155.738V84.7266H160.699V86.7188H158.98C159.049 87.9199 159.84 89.1211 161.402 89.707L160.348 91.4648C159.029 90.9961 158.199 90.1172 157.73 89.0625C157.34 89.9902 156.646 90.8008 155.484 91.25C154.342 90.8105 153.658 89.9902 153.258 89.0625C152.809 90.1172 151.988 90.9961 150.68 91.4648L149.625 89.707C151.188 89.1211 151.959 87.9199 152.066 86.7188H150.191V84.7266H155.25ZM164.312 84.0234V88.6914H166.227V90.7617H164.312V95.293H161.812V84.0234H164.312ZM164.312 96.0547V101.797H161.812V98.0273H151.52V96.0547H164.312ZM27.6328 112.941C31.4609 112.941 34.3125 114.875 34.332 117.805C34.3125 120.48 32.0566 122.287 28.8633 122.648V125.676H35.7969V127.727H19.5273V125.676H26.3828V122.629C23.1992 122.287 20.9531 120.471 20.9531 117.805C20.9531 114.875 23.8047 112.941 27.6328 112.941ZM27.6328 114.934C25.1523 114.934 23.4141 116.027 23.4141 117.805C23.4141 119.68 25.1523 120.734 27.6328 120.734C30.1328 120.734 31.8516 119.68 31.8711 117.805C31.8516 116.027 30.1328 114.934 27.6328 114.934ZM41.4219 114.152C41.4219 115.686 41.6367 117.512 42.6523 118.898C43.6484 117.521 43.8438 115.715 43.8438 114.152V113.039H46.1875V114.152C46.1875 116.359 46.7539 118.703 48.8242 119.953L47.457 121.691C46.2461 120.988 45.4941 119.865 45.0547 118.547C44.6055 119.924 43.873 121.145 42.6523 121.906C41.4121 121.125 40.6699 119.875 40.25 118.469C39.791 119.816 39.0391 120.969 37.8281 121.691L36.4805 119.953C38.5312 118.664 39.0781 116.262 39.0781 114.152V113.039H41.4219V114.152ZM51.4219 112.023V116.203H53.2578V118.273H51.4219V122.434H48.9414V112.023H51.4219ZM51.4219 123.215V129.797H48.9414V125.188H38.9609V123.215H51.4219ZM68.1992 112.043V117.492H70.6016V119.523H68.1992V125.305H65.6992V112.043H68.1992ZM64.6445 113.898V115.871H54.0977V113.898H58.1406V112.004H60.6211V113.898H64.6445ZM59.3711 116.496C61.9492 116.496 63.7461 117.883 63.7461 119.934C63.7461 121.984 61.9492 123.332 59.3711 123.332C56.7734 123.332 54.957 121.984 54.957 119.934C54.957 117.883 56.7734 116.496 59.3711 116.496ZM59.3711 118.391C58.1797 118.41 57.3789 118.957 57.3984 119.934C57.3789 120.91 58.1797 121.438 59.3711 121.438C60.5625 121.438 61.3828 120.91 61.3828 119.934C61.3828 118.957 60.5625 118.41 59.3711 118.391ZM68.8438 127.492V129.484H56.6758V124.289H59.1562V127.492H68.8438ZM92.5352 118.762V120.793H90.0156V129.758H87.5156V112.023H90.0156V118.762H92.5352ZM79.0391 113.723V123.352C81.3145 123.322 83.7559 123.107 86.3242 122.59L86.5781 124.66C83.6094 125.266 80.7188 125.422 78.1016 125.422H76.5586V113.723H79.0391ZM108.043 112.453V114.289H105.719V116.633H107.926V118.488H102.613V119.602H109.488V121.535H93.2773V119.602H100.113V118.488H94.8203V116.633H97.0078V114.289H94.7031V112.453H108.043ZM107.516 122.473V126.828H97.6133V127.844H107.984V129.68H95.1719V125.148H105.055V124.25H95.1523V122.473H107.516ZM99.5078 116.633H103.219V114.289H99.5078V116.633ZM125.465 112.023V129.836H122.984V112.023H125.465ZM119.957 113.508V120.363H114.098V123.625C116.803 123.615 119.107 123.459 121.715 123.039L121.93 125.051C119 125.559 116.363 125.676 113.121 125.676H111.52V118.391H117.418V115.52H111.5V113.508H119.957ZM136.91 113.391V115.344H131.031V117.062H136.539V119.035H131.031V120.812C133.941 120.793 135.777 120.695 137.867 120.363L138.141 122.277C135.738 122.746 133.59 122.824 129.996 122.824H128.512V113.391H136.91ZM141.949 112.023V117.297H144.352V119.309H141.949V125.168H139.449V112.023H141.949ZM142.594 127.492V129.484H130.426V123.977H132.906V127.492H142.594ZM155.621 113.977V115.285C155.602 116.867 155.602 118.957 155.172 121.828L152.711 121.574C153.092 119.23 153.15 117.414 153.16 115.969H146.305V113.977H155.621ZM151.09 119.426V124.191C152.994 124.123 154.938 124.006 156.754 123.781L156.969 125.598C152.984 126.242 148.805 126.32 145.445 126.32L145.133 124.289C146.217 124.279 147.398 124.279 148.629 124.25V119.426H151.09ZM160.27 112.023V129.836H157.77V112.023H160.27ZM176.52 112.023V116.027H178.922V118.078H176.52V122.004H174.02V112.023H176.52ZM171.031 113.137V115.109H165.602V119.348C168.814 119.328 170.582 119.211 172.574 118.801L172.828 120.754C170.602 121.262 168.551 121.34 164.605 121.34H163.102V113.137H171.031ZM176.52 122.746V129.582H164.898V122.746H176.52ZM167.359 124.719V127.629H174.059V124.719H167.359Z" fill="white"/>
<path d="M28.9609 154.582V155.473H19.3867V154.582H23.6172V153.68C21.6426 153.574 20.418 152.854 20.418 151.711C20.418 150.434 21.8711 149.684 24.168 149.684C26.4766 149.684 27.918 150.434 27.918 151.711C27.918 152.854 26.6934 153.58 24.6953 153.68V154.582H28.9609ZM24.168 156.211C26.4297 156.211 27.7891 156.879 27.7891 158.098C27.7891 159.293 26.4297 159.973 24.168 159.973C21.8828 159.973 20.5234 159.293 20.5234 158.098C20.5234 156.879 21.8828 156.211 24.168 156.211ZM24.168 157.055C22.5625 157.055 21.6484 157.43 21.6484 158.098C21.6484 158.754 22.5625 159.129 24.168 159.117C25.75 159.129 26.6758 158.754 26.6758 158.098C26.6758 157.43 25.75 157.055 24.168 157.055ZM24.168 150.562C22.5508 150.562 21.5547 150.984 21.5664 151.711C21.5547 152.426 22.5508 152.812 24.168 152.824C25.7734 152.812 26.7695 152.426 26.7695 151.711C26.7695 150.984 25.7734 150.562 24.168 150.562ZM38.4883 149.496V159.996H37.3633V149.496H38.4883ZM35.3594 150.621C35.3594 153.691 34.0469 156.363 30.4492 158.086L29.8633 157.184C32.6582 155.854 34.0176 153.961 34.2344 151.512H30.3672V150.621H35.3594ZM43.7969 151.43C43.7969 152.766 44.7227 153.984 46.3164 154.488L45.7891 155.355C44.5938 154.975 43.7207 154.184 43.2578 153.188C42.8008 154.336 41.8809 155.244 40.6211 155.684L40.0469 154.793C41.6875 154.254 42.6719 152.895 42.6836 151.441V151.148H40.375V150.246H46.0586V151.148H43.7969V151.43ZM48.3789 149.496V152.098H49.9023V153.012H48.3789V155.801H47.2656V149.496H48.3789ZM44.9922 156.059C47.1602 156.059 48.4727 156.773 48.4727 158.004C48.4727 159.246 47.1602 159.984 44.9922 159.973C42.8008 159.984 41.4648 159.246 41.4648 158.004C41.4648 156.773 42.8008 156.059 44.9922 156.059ZM44.9922 156.938C43.4688 156.938 42.5664 157.324 42.5781 158.004C42.5664 158.707 43.4688 159.094 44.9922 159.094C46.5039 159.094 47.3828 158.707 47.3828 158.004C47.3828 157.324 46.5039 156.938 44.9922 156.938ZM53.9219 150.246C55.5859 150.234 56.7695 151.266 56.7812 152.742C56.7695 154.219 55.5859 155.25 53.9219 155.25C52.2695 155.25 51.0508 154.219 51.0625 152.742C51.0508 151.266 52.2695 150.234 53.9219 150.246ZM53.9219 151.207C52.9023 151.207 52.1523 151.816 52.1641 152.742C52.1523 153.668 52.9023 154.277 53.9219 154.277C54.9414 154.277 55.6914 153.668 55.6914 152.742C55.6914 151.816 54.9414 151.207 53.9219 151.207ZM59.1836 149.496V160.02H58.0703V149.496H59.1836ZM50.5586 156.832C52.4688 156.832 55.1172 156.809 57.4141 156.48L57.4961 157.289C55.1172 157.746 52.5742 157.758 50.6992 157.758L50.5586 156.832ZM73.6094 153.621V154.535H71.9805V159.984H70.8672V149.496H71.9805V153.621H73.6094ZM65.3008 150.516V156.422C66.7656 156.422 68.2949 156.299 69.9648 155.953L70.0938 156.891C68.3008 157.254 66.6367 157.348 65.0664 157.348H64.1992V150.516H65.3008ZM82.8438 149.766V150.609H81.3203V152.438H82.7969V153.27H79.5039V154.172H83.7461V155.051H74.1719V154.172H78.3906V153.27H75.0977V152.438H76.5859V150.609H75.0508V149.766H82.8438ZM82.5391 155.801V158.168H76.4219V159.047H82.832V159.891H75.332V157.383H81.4375V156.609H75.3203V155.801H82.5391ZM77.6875 152.438H80.207V150.609H77.6875V152.438ZM93.2617 149.496V160.02H92.1484V149.496H93.2617ZM90.0508 150.445V154.277H86.2773V156.574C87.9766 156.568 89.4648 156.492 91.2227 156.199L91.3281 157.113C89.4648 157.43 87.8828 157.5 86.0312 157.5H85.1406V153.387H88.9141V151.348H85.1289V150.445H90.0508ZM100.246 150.328V151.219H96.4844V152.543H100.047V153.434H96.4844V154.84C98.4355 154.822 99.5605 154.77 100.902 154.547L101.02 155.414C99.5781 155.684 98.3477 155.742 96.1914 155.742H95.3711V150.328H100.246ZM103.164 149.484V152.707H104.688V153.633H103.164V157.266H102.051V149.484H103.164ZM103.609 158.871V159.773H96.5078V156.562H97.6211V158.871H103.609ZM111.402 150.691V151.289C111.391 152.133 111.391 153.445 111.109 155.309L110.008 155.191C110.266 153.609 110.295 152.414 110.301 151.594H105.988V150.691H111.402ZM108.684 153.832V156.82C109.885 156.779 111.115 156.703 112.258 156.562L112.363 157.383C109.996 157.758 107.453 157.805 105.461 157.805L105.309 156.867C106.012 156.867 106.779 156.867 107.582 156.844V153.832H108.684ZM114.051 149.496V160.02H112.938V149.496H114.051ZM123.906 149.496V151.992H125.43V152.918H123.906V155.426H122.793V149.496H123.906ZM120.789 150.188V151.09H117.227V153.984C119.271 153.979 120.426 153.902 121.738 153.645L121.867 154.535C120.449 154.84 119.207 154.887 116.957 154.887H116.125V150.188H120.789ZM123.906 155.941V159.855H117.203V155.941H123.906ZM118.293 156.832V158.965H122.805V156.832H118.293ZM129.918 151.172C129.918 152.473 130.938 153.691 132.555 154.16L131.992 155.027C130.768 154.658 129.842 153.855 129.367 152.824C128.893 153.926 127.955 154.799 126.695 155.215L126.133 154.336C127.762 153.832 128.781 152.555 128.793 151.172V151.055H126.438V150.152H132.227V151.055H129.918V151.172ZM134.734 149.496V155.18H133.621V149.496H134.734ZM128.957 155.672V156.844H133.633V155.672H134.734V159.867H127.867V155.672H128.957ZM128.957 158.965H133.633V157.723H128.957V158.965Z" fill="white"/>
<defs>
<linearGradient id="paint0_linear_691_1270" x1="162" y1="0" x2="162" y2="188" gradientUnits="userSpaceOnUse">
<stop offset="0.215" stop-color="#26546E"/>
<stop offset="1" stop-color="#49A2D4"/>
</linearGradient>
</defs>
</svg>
