<svg width="196" height="275" viewBox="0 0 196 275" fill="none" xmlns="http://www.w3.org/2000/svg">
<rect x="0.5" y="0.5" width="195" height="274" fill="white" stroke="#9E9E9E"/>
<path d="M78.9072 161.197L78.7952 161.136H78.6677C76.8331 161.136 75.3001 160.647 74.0208 159.705C72.7359 158.758 71.6749 157.33 70.832 155.401C69.1399 151.529 68.3687 145.739 68.3687 138.132C68.3687 132.101 68.9279 126.239 70.5106 122.61C71.3016 120.796 72.3051 119.64 73.5251 119.22C74.7305 118.806 76.3103 119.057 78.3904 120.444L78.4606 120.491L78.5422 120.512C78.9843 120.626 79.433 120.741 79.8864 120.856C83.8741 121.872 88.2232 122.979 91.5299 125.207C93.356 126.437 94.8431 127.998 95.7648 130.058C96.6806 132.106 97.0558 134.687 96.6036 137.997C95.3078 141.047 95.282 145.021 95.4986 148.934C95.5612 150.065 95.6438 151.19 95.7247 152.293C95.9298 155.088 96.1243 157.738 95.9559 159.971C95.839 161.519 95.5497 162.8 95.0057 163.749C94.4747 164.676 93.6926 165.305 92.5175 165.559C91.3157 165.819 89.6683 165.693 87.4217 165.007C85.1809 164.323 82.385 163.094 78.9072 161.197Z" fill="#D9D9D9" stroke="#9E9E9E"/>
<path d="M101.38 139.258L101.401 139.329V139.403C101.401 142.077 101.043 145.216 100.687 148.344C100.605 149.065 100.523 149.785 100.445 150.499C100.027 154.346 99.7387 157.999 100.2 160.718C100.43 162.074 100.839 163.144 101.464 163.885C102.074 164.608 102.923 165.057 104.135 165.122C105.367 165.188 106.983 164.856 109.083 163.976C111.177 163.097 113.722 161.686 116.8 159.632L116.908 159.56L117.037 159.549C120.911 159.234 123.379 158.571 124.932 157.612C126.446 156.678 127.121 155.443 127.362 153.845C127.609 152.202 127.394 150.202 127.099 147.764C127.084 147.633 127.067 147.5 127.051 147.366C126.769 145.044 126.446 142.38 126.446 139.403C126.446 137.053 126.603 134.703 126.751 132.503C126.8 131.769 126.848 131.052 126.889 130.357C127.053 127.552 127.095 125.135 126.659 123.336C126.442 122.445 126.116 121.739 125.656 121.22C125.204 120.709 124.598 120.35 123.767 120.186C122.065 119.851 119.428 120.334 115.392 122.075L115.297 122.116H115.194C111.4 122.116 106.933 123.134 103.934 125.763C102.444 127.07 101.311 128.778 100.794 130.976C100.275 133.179 100.367 135.906 101.38 139.258Z" fill="#D9D9D9" stroke="#9E9E9E"/>
<path d="M129.696 120.102C129.696 118.503 129.696 117.704 129.919 116.989C130.554 114.919 132.248 114.115 133.937 113.273C135.837 112.32 136.79 111.849 137.727 111.77C138.795 111.672 139.867 111.923 140.781 112.484C141.999 113.225 142.841 114.644 143.703 115.793C147.7 121.097 149.696 123.749 150.426 126.677C151.016 129.037 151.016 131.505 150.426 133.865C149.362 138.132 145.996 141.705 143.502 145.019C142.226 146.713 141.586 147.56 140.781 148.052C139.867 148.616 138.796 148.868 137.727 148.772C136.79 148.688 135.837 148.211 133.937 147.269C132.243 146.422 130.559 145.623 129.913 143.548C129.696 142.833 129.696 142.034 129.696 140.435V120.102ZM66.1724 120.107C66.1724 118.09 66.1195 116.28 64.632 114.861C64.0867 114.348 63.3668 113.988 61.9322 113.273C60.0265 112.326 59.0789 111.854 58.1366 111.77C55.3151 111.521 53.7958 113.628 52.1654 115.793C48.1687 121.097 46.1729 123.749 45.4424 126.677C44.8525 129.037 44.8525 131.505 45.4424 133.865C46.5012 138.132 49.8732 141.705 52.3665 145.019C53.9388 147.105 55.4369 149.011 58.1366 148.767C59.0789 148.688 60.0318 148.211 61.9322 147.264C63.3668 146.549 64.0867 146.194 64.632 145.676C66.1195 144.262 66.1671 142.446 66.1671 140.435L66.1724 120.107Z" stroke="#9E9E9E" stroke-width="12.5" stroke-linecap="round" stroke-linejoin="round"/>
<path d="M140.498 111.749V105.788C140.498 82.7816 121.53 64.1267 98.1484 64.1267C74.7663 64.1267 55.7991 82.7816 55.7991 105.788V111.743M98.1378 124.792C91.5419 121.298 76.9631 115.364 70.272 117.169C69.0015 117.699 66.3758 119.525 66.3758 125.634L66.884 157.274C66.9158 159.233 68.4298 160.837 70.3461 161.107C76.8731 162.028 87.9845 164.675 98.1378 170M98.1378 124.792V170M98.1378 124.792C104.728 121.298 119.312 115.364 126.004 117.169C127.274 117.699 129.9 119.525 129.9 125.634L129.397 157.274C129.368 158.219 129.003 159.124 128.369 159.826C127.735 160.528 126.872 160.982 125.935 161.107C119.408 162.028 108.291 164.675 98.1378 170" stroke="#9E9E9E" stroke-width="12.5" stroke-linecap="round" stroke-linejoin="round"/>
<path d="M90.8547 96.7525C92.3809 98.5715 93.2731 100.599 93.5012 102.388C93.7301 104.184 93.2881 105.667 92.2532 106.536C91.2184 107.404 89.6805 107.582 87.9519 107.044C86.2293 106.509 84.3878 105.279 82.8615 103.46C81.3352 101.641 80.4431 99.6134 80.215 97.8241C79.9861 96.0284 80.4281 94.5447 81.463 93.6764C82.4978 92.808 84.0357 92.6304 85.7643 93.1677C87.4869 93.703 89.3284 94.9336 90.8547 96.7525Z" fill="#9E9E9E" stroke="#9E9E9E"/>
<path d="M114.994 103.378C113.468 105.196 111.626 106.427 109.904 106.962C108.175 107.5 106.637 107.322 105.602 106.454C104.567 105.585 104.125 104.102 104.354 102.306C104.582 100.517 105.474 98.4894 107.001 96.6705C108.527 94.8515 110.368 93.621 112.091 93.0856C113.82 92.5484 115.358 92.7259 116.392 93.5943C117.427 94.4627 117.869 95.9464 117.64 97.742C117.412 99.5314 116.52 101.559 114.994 103.378Z" fill="#9E9E9E" stroke="#9E9E9E"/>
<path d="M91.4522 103.512C91.4522 104.288 90.8228 104.917 90.0465 104.917C89.2701 104.917 88.6407 104.288 88.6407 103.512C88.6407 102.735 89.2701 102.106 90.0465 102.106C90.8228 102.106 91.4522 102.735 91.4522 103.512Z" fill="white" stroke="#9E9E9E"/>
<path d="M108.659 103.512C108.659 104.288 108.03 104.917 107.253 104.917C106.477 104.917 105.848 104.288 105.848 103.512C105.848 102.735 106.477 102.106 107.253 102.106C108.03 102.106 108.659 102.735 108.659 103.512Z" fill="white" stroke="#9E9E9E"/>
<rect x="63.8766" y="50.9957" width="8.52859" height="23.4856" transform="rotate(-31.9605 63.8766 50.9957)" fill="#9E9E9E" stroke="#9E9E9E"/>
<path d="M74.8713 46.3008C74.1739 51.2381 69.6061 54.6753 64.6687 53.9779C59.7314 53.2806 56.2942 48.7127 56.9916 43.7754C57.6889 38.838 62.2568 35.4009 67.1941 36.0982C72.1315 36.7956 75.5686 41.3634 74.8713 46.3008Z" fill="#9E9E9E" stroke="#9E9E9E"/>
<path d="M70.5128 45.3643C70.1834 47.6963 68.026 49.3197 65.694 48.9903C63.3621 48.661 61.7387 46.5035 62.068 44.1716C62.3974 41.8396 64.5548 40.2162 66.8868 40.5456C69.2188 40.8749 70.8422 43.0324 70.5128 45.3643Z" fill="#53FF95" stroke="#9E9E9E"/>
<rect x="124.248" y="46.3942" width="8.5286" height="23.4857" transform="rotate(32.1389 124.248 46.3942)" fill="#9E9E9E" stroke="#9E9E9E"/>
<path d="M133.097 53.5853C128.351 55.1147 123.264 52.5071 121.734 47.761C120.205 43.015 122.812 37.9278 127.559 36.3984C132.305 34.8691 137.392 37.4767 138.921 42.2227C140.45 46.9687 137.843 52.0559 133.097 53.5853Z" fill="#9E9E9E" stroke="#9E9E9E"/>
<path d="M131.533 48.7719C129.291 49.4942 126.888 48.2626 126.166 46.021C125.444 43.7794 126.675 41.3767 128.917 40.6543C131.159 39.932 133.561 41.1636 134.284 43.4052C135.006 45.6468 133.774 48.0495 131.533 48.7719Z" fill="#EDFF4A" stroke="#9E9E9E"/>
<path d="M129.696 120.102C129.696 118.503 129.696 117.704 129.919 116.989C130.554 114.919 132.248 114.115 133.937 113.273C135.837 112.32 136.79 111.849 137.727 111.77C138.795 111.672 139.867 111.923 140.781 112.484C141.999 113.225 142.841 114.644 143.703 115.793C147.7 121.097 149.696 123.749 150.426 126.677C151.016 129.037 151.016 131.505 150.426 133.865C149.362 138.132 145.996 141.705 143.502 145.019C142.226 146.713 141.586 147.56 140.781 148.052C139.867 148.616 138.796 148.868 137.727 148.772C136.79 148.688 135.837 148.211 133.937 147.269C132.243 146.422 130.559 145.623 129.913 143.548C129.696 142.833 129.696 142.034 129.696 140.435V120.102ZM66.1724 120.107C66.1724 118.09 66.1195 116.28 64.632 114.861C64.0867 114.348 63.3668 113.988 61.9322 113.273C60.0265 112.326 59.0789 111.854 58.1366 111.77C55.3151 111.521 53.7958 113.628 52.1654 115.793C48.1687 121.097 46.1729 123.749 45.4424 126.677C44.8525 129.037 44.8525 131.505 45.4424 133.865C46.5012 138.132 49.8732 141.705 52.3665 145.019C53.9388 147.105 55.4369 149.011 58.1366 148.767C59.0789 148.688 60.0318 148.211 61.9322 147.264C63.3668 146.549 64.0867 146.194 64.632 145.676C66.1195 144.262 66.1671 142.446 66.1671 140.435L66.1724 120.107Z" stroke="#9E9E9E" stroke-width="12.5" stroke-linecap="round" stroke-linejoin="round"/>
<path d="M140.498 111.749V105.788C140.498 82.7816 121.53 64.1267 98.1484 64.1267C74.7663 64.1267 55.7991 82.7816 55.7991 105.788V111.743M98.1378 124.792C91.5419 121.298 76.9631 115.364 70.272 117.169C69.0015 117.699 66.3758 119.525 66.3758 125.634L66.884 157.274C66.9158 159.233 68.4298 160.837 70.3461 161.107C76.8731 162.028 87.9845 164.675 98.1378 170M98.1378 124.792V170M98.1378 124.792C104.728 121.298 119.312 115.364 126.004 117.169C127.274 117.699 129.9 119.525 129.9 125.634L129.397 157.274C129.368 158.219 129.003 159.124 128.369 159.826C127.735 160.528 126.872 160.982 125.935 161.107C119.408 162.028 108.291 164.675 98.1378 170" stroke="#9E9E9E" stroke-width="12.5" stroke-linecap="round" stroke-linejoin="round"/>
<path d="M90.8547 96.7525C92.3809 98.5715 93.2731 100.599 93.5012 102.388C93.7301 104.184 93.2881 105.667 92.2532 106.536C91.2184 107.404 89.6805 107.582 87.9519 107.044C86.2293 106.509 84.3878 105.279 82.8615 103.46C81.3352 101.641 80.4431 99.6134 80.215 97.8241C79.9861 96.0284 80.4281 94.5447 81.463 93.6764C82.4978 92.808 84.0357 92.6304 85.7643 93.1677C87.4869 93.703 89.3284 94.9336 90.8547 96.7525Z" fill="#9E9E9E" stroke="#9E9E9E"/>
<path d="M114.994 103.378C113.468 105.196 111.626 106.427 109.904 106.962C108.175 107.5 106.637 107.322 105.602 106.454C104.567 105.585 104.125 104.102 104.354 102.306C104.582 100.517 105.474 98.4894 107.001 96.6705C108.527 94.8515 110.368 93.621 112.091 93.0856C113.82 92.5484 115.358 92.7259 116.392 93.5943C117.427 94.4627 117.869 95.9464 117.64 97.742C117.412 99.5314 116.52 101.559 114.994 103.378Z" fill="#9E9E9E" stroke="#9E9E9E"/>
<path d="M91.4522 103.512C91.4522 104.288 90.8228 104.917 90.0465 104.917C89.2701 104.917 88.6407 104.288 88.6407 103.512C88.6407 102.735 89.2701 102.106 90.0465 102.106C90.8228 102.106 91.4522 102.735 91.4522 103.512Z" fill="#D9D9D9" stroke="#9E9E9E"/>
<path d="M108.659 103.512C108.659 104.288 108.03 104.917 107.253 104.917C106.477 104.917 105.848 104.288 105.848 103.512C105.848 102.735 106.477 102.106 107.253 102.106C108.03 102.106 108.659 102.735 108.659 103.512Z" fill="#D9D9D9" stroke="#9E9E9E"/>
<rect x="63.8766" y="50.9957" width="8.52859" height="23.4856" transform="rotate(-31.9605 63.8766 50.9957)" fill="#9E9E9E" stroke="#9E9E9E"/>
<path d="M74.8713 46.3008C74.1739 51.2381 69.6061 54.6753 64.6687 53.9779C59.7314 53.2806 56.2942 48.7127 56.9916 43.7754C57.6889 38.838 62.2568 35.4009 67.1941 36.0982C72.1315 36.7956 75.5686 41.3634 74.8713 46.3008Z" fill="#9E9E9E" stroke="#9E9E9E"/>
<path d="M70.5128 45.3643C70.1834 47.6963 68.026 49.3197 65.694 48.9903C63.3621 48.661 61.7387 46.5035 62.068 44.1716C62.3974 41.8396 64.5548 40.2162 66.8868 40.5456C69.2188 40.8749 70.8422 43.0324 70.5128 45.3643Z" fill="#D9D9D9" stroke="#9E9E9E"/>
<rect x="124.248" y="46.3942" width="8.5286" height="23.4857" transform="rotate(32.1389 124.248 46.3942)" fill="#9E9E9E" stroke="#9E9E9E"/>
<path d="M133.097 53.5853C128.351 55.1147 123.264 52.5071 121.734 47.761C120.205 43.015 122.812 37.9278 127.559 36.3984C132.305 34.8691 137.392 37.4767 138.921 42.2227C140.45 46.9687 137.843 52.0559 133.097 53.5853Z" fill="#9E9E9E" stroke="#9E9E9E"/>
<path d="M131.533 48.7719C129.291 49.4942 126.888 48.2626 126.166 46.021C125.444 43.7794 126.675 41.3767 128.917 40.6543C131.159 39.932 133.561 41.1636 134.284 43.4052C135.006 45.6468 133.774 48.0495 131.533 48.7719Z" fill="#D9D9D9" stroke="#9E9E9E"/>
<path d="M66.0975 220.024H60.8175V223H65.0735V227.224H60.8175V235H55.3455V215.128H66.4175L66.0975 220.024ZM73.258 228.472C73.258 229.133 73.3967 229.624 73.674 229.944C73.9513 230.264 74.3993 230.424 75.018 230.424C75.658 230.424 76.0953 230.275 76.33 229.976C76.586 229.656 76.714 229.144 76.714 228.44V215.128H82.218V228.76C82.218 231.043 81.5887 232.707 80.33 233.752C79.0927 234.797 77.258 235.32 74.826 235.32C72.4153 235.32 70.6127 234.808 69.418 233.784C68.2447 232.739 67.658 231.085 67.658 228.824V215.128H73.258V228.472ZM99.529 235H94.281L90.153 225.752H89.897V235H85.033V215.128H90.441L94.377 224.664H94.633V215.128H99.529V235ZM114.314 221.048C112.266 220.429 110.762 220.12 109.802 220.12C108.863 220.12 108.212 220.536 107.85 221.368C107.508 222.2 107.338 223.523 107.338 225.336C107.338 227.128 107.498 228.44 107.818 229.272C108.159 230.083 108.842 230.488 109.866 230.488C110.164 230.488 110.74 230.403 111.594 230.232V227.8H110.154V224.024H116.266V235H112.49L111.978 233.976H111.85C111.487 234.275 111.199 234.499 110.986 234.648C110.388 235.096 109.546 235.32 108.458 235.32C103.999 235.32 101.77 231.949 101.77 225.208C101.77 221.837 102.356 219.267 103.53 217.496C104.703 215.704 106.676 214.808 109.45 214.808C111.668 214.808 113.578 215.149 115.178 215.832L114.314 221.048ZM129.051 235H118.939V215.128H124.411V230.552H129.371L129.051 235ZM141.285 235H130.533V215.128H141.605L141.285 220.024H136.005V223H140.581V227.224H136.005V230.52H141.605L141.285 235Z" fill="#9E9E9E"/>
</svg>
