<svg width="370" height="308" viewBox="0 0 370 308" fill="none" xmlns="http://www.w3.org/2000/svg">
<path d="M185 251.5C177 270 200 312.5 156 288.5C143.85 288.5 139 275.5 139 251.5C139 232.5 142.5 214 156 223C169.5 226.5 188 230 185 251.5Z" fill="#6EFF30"/>
<path d="M191 253.5C191 274 177.5 312 216.465 286C241 284 232 273.106 232 253.5C232 233.894 239 214.5 213.5 225.5C201.35 225.5 184.5 232 191 253.5Z" fill="#6EFF30"/>
<path d="M236.33 223.117C236.33 220.6 236.33 219.342 236.68 218.217C237.68 214.958 240.346 213.692 243.005 212.367C245.996 210.867 247.496 210.125 248.971 210C250.654 209.847 252.34 210.241 253.78 211.125C255.696 212.292 257.021 214.525 258.38 216.333C264.671 224.683 267.813 228.858 268.963 233.467C269.892 237.182 269.892 241.068 268.963 244.783C267.288 251.5 261.988 257.125 258.063 262.342C256.055 265.008 255.046 266.342 253.78 267.117C252.341 268.003 250.655 268.401 248.971 268.25C247.496 268.117 245.996 267.367 243.005 265.883C240.338 264.55 237.688 263.292 236.671 260.025C236.33 258.9 236.33 257.642 236.33 255.125V223.117ZM136.33 223.125C136.33 219.95 136.246 217.1 133.905 214.867C133.046 214.058 131.913 213.492 129.655 212.367C126.655 210.875 125.163 210.133 123.68 210C119.238 209.608 116.846 212.925 114.28 216.333C107.988 224.683 104.846 228.858 103.696 233.467C102.768 237.182 102.768 241.068 103.696 244.783C105.363 251.5 110.671 257.125 114.596 262.342C117.071 265.625 119.43 268.625 123.68 268.242C125.163 268.117 126.663 267.367 129.655 265.875C131.913 264.75 133.046 264.192 133.905 263.375C136.246 261.15 136.321 258.292 136.321 255.125L136.33 223.125Z" stroke="#141E8E" stroke-width="12.5" stroke-linecap="round" stroke-linejoin="round"/>
<path d="M253.333 209.967V200.583C253.333 164.367 223.475 135 186.667 135C149.858 135 120 164.367 120 200.583V209.958M186.65 230.5C176.267 225 153.317 215.658 142.783 218.5C140.783 219.333 136.65 222.208 136.65 231.825L137.45 281.633C137.5 284.717 139.883 287.242 142.9 287.667C153.175 289.117 170.667 293.283 186.65 301.667M186.65 230.5V301.667M186.65 230.5C197.025 225 219.983 215.658 230.517 218.5C232.517 219.333 236.65 222.208 236.65 231.825L235.858 281.633C235.812 283.122 235.239 284.545 234.241 285.65C233.243 286.755 231.884 287.47 230.408 287.667C220.133 289.117 202.633 293.283 186.65 301.667" stroke="#141E8E" stroke-width="12.5" stroke-linecap="round" stroke-linejoin="round"/>
<path d="M175.788 185.854C180.758 191.777 181.7 199.169 177.892 202.364C174.085 205.559 166.969 203.347 161.999 197.424C157.029 191.501 156.087 184.109 159.894 180.914C163.702 177.719 170.818 179.931 175.788 185.854Z" fill="black"/>
<path d="M213.788 197.295C208.818 203.218 201.702 205.429 197.894 202.234C194.087 199.039 195.029 191.648 199.999 185.725C204.969 179.802 212.085 177.59 215.892 180.785C219.7 183.98 218.758 191.372 213.788 197.295Z" fill="black"/>
<circle cx="173.913" cy="197" r="3" fill="#6EFF30"/>
<path d="M204 197C204 198.657 202.657 200 201 200C199.343 200 198 198.657 198 197C198 195.343 199.343 194 201 194C202.657 194 204 195.343 204 197Z" fill="#6EFF30"/>
<rect x="131.631" y="114.078" width="15" height="38.5455" transform="rotate(-31.9605 131.631 114.078)" fill="#141E8E"/>
<circle cx="135.951" cy="104.95" r="15" transform="rotate(8.03952 135.951 104.95)" fill="#141E8E"/>
<circle cx="136.516" cy="104.525" r="7.5" transform="rotate(8.03952 136.516 104.525)" fill="#6EFF30"/>
<rect x="227.505" y="106" width="15" height="38.5455" transform="rotate(32.1389 227.505 106)" fill="#141E8E"/>
<circle cx="237.324" cy="104.878" r="15" transform="rotate(72.1389 237.324 104.878)" fill="#141E8E"/>
<circle cx="237.162" cy="104.439" r="7.5" transform="rotate(72.1389 237.162 104.439)" fill="#6EFF30"/>
<path d="M72.5 77H27.5C26.1195 77 25 78.1195 25 79.5V104.5C25 105.88 26.1195 107 27.5 107H72.5C73.8805 107 75 105.88 75 104.5V79.5C75 78.1195 73.8805 77 72.5 77ZM28.75 103.25V98.25C31.5117 98.25 33.75 100.488 33.75 103.25H28.75ZM28.75 85.75V80.75H33.75C33.75 83.5117 31.5117 85.75 28.75 85.75ZM50 99.5C46.5477 99.5 43.75 96.1414 43.75 92C43.75 87.8578 46.5484 84.5 50 84.5C53.4516 84.5 56.25 87.8578 56.25 92C56.25 96.143 53.4508 99.5 50 99.5ZM71.25 103.25H66.25C66.25 100.488 68.4883 98.25 71.25 98.25V103.25ZM71.25 85.75C68.4883 85.75 66.25 83.5117 66.25 80.75H71.25V85.75Z" fill="#00C471"/>
<path d="M271.5 10H226.5C225.12 10 224 11.1195 224 12.5V37.5C224 38.8805 225.12 40 226.5 40H271.5C272.88 40 274 38.8805 274 37.5V12.5C274 11.1195 272.88 10 271.5 10ZM227.75 36.25V31.25C230.512 31.25 232.75 33.4883 232.75 36.25H227.75ZM227.75 18.75V13.75H232.75C232.75 16.5117 230.512 18.75 227.75 18.75ZM249 32.5C245.548 32.5 242.75 29.1414 242.75 25C242.75 20.8578 245.548 17.5 249 17.5C252.452 17.5 255.25 20.8578 255.25 25C255.25 29.143 252.451 32.5 249 32.5ZM270.25 36.25H265.25C265.25 33.4883 267.488 31.25 270.25 31.25V36.25ZM270.25 18.75C267.488 18.75 265.25 16.5117 265.25 13.75H270.25V18.75Z" fill="#00C471"/>
<path d="M367.5 151H322.5C321.12 151 320 152.12 320 153.5V178.5C320 179.88 321.12 181 322.5 181H367.5C368.88 181 370 179.88 370 178.5V153.5C370 152.12 368.88 151 367.5 151ZM323.75 177.25V172.25C326.512 172.25 328.75 174.488 328.75 177.25H323.75ZM323.75 159.75V154.75H328.75C328.75 157.512 326.512 159.75 323.75 159.75ZM345 173.5C341.548 173.5 338.75 170.141 338.75 166C338.75 161.858 341.548 158.5 345 158.5C348.452 158.5 351.25 161.858 351.25 166C351.25 170.143 348.451 173.5 345 173.5ZM366.25 177.25H361.25C361.25 174.488 363.488 172.25 366.25 172.25V177.25ZM366.25 159.75C363.488 159.75 361.25 157.512 361.25 154.75H366.25V159.75Z" fill="#00C471"/>
<path d="M107.167 19.0354C107.167 29.1666 115.542 34.5646 121.671 39.3979C123.833 41.1021 125.917 42.7083 128 42.7083C130.083 42.7083 132.167 41.1041 134.329 39.3958C140.461 34.5666 148.833 29.1666 148.833 19.0375C148.833 8.90831 137.375 1.71873 128 11.4604C118.625 1.71873 107.167 8.90415 107.167 19.0354Z" fill="#FF0EA7"/>
<path d="M307.167 86.0354C307.167 96.1666 315.542 101.565 321.671 106.398C323.833 108.102 325.917 109.708 328 109.708C330.083 109.708 332.167 108.104 334.329 106.396C340.461 101.567 348.833 96.1666 348.833 86.0375C348.833 75.9083 337.375 68.7187 328 78.4604C318.625 68.7187 307.167 75.9041 307.167 86.0354Z" fill="#FF0EA7"/>
<path d="M4.16675 163.035C4.16675 173.167 12.5417 178.565 18.6709 183.398C20.8334 185.102 22.9167 186.708 25.0001 186.708C27.0834 186.708 29.1667 185.104 31.3293 183.396C37.4605 178.567 45.8334 173.167 45.8334 163.037C45.8334 152.908 34.3751 145.719 25.0001 155.46C15.6251 145.719 4.16675 152.904 4.16675 163.035Z" fill="#FF0EA7"/>
</svg>
