<svg width="152" height="117" viewBox="0 0 152 117" fill="none" xmlns="http://www.w3.org/2000/svg">
<path d="M39.9956 90.6497C36.4839 98.7706 46.5802 117.427 27.2655 106.892C21.9319 106.892 19.803 101.185 19.803 90.6497C19.803 82.3092 21.3394 74.1883 27.2655 78.139C33.1916 79.6754 41.3126 81.2118 39.9956 90.6497Z" fill="#D9D9D9"/>
<path d="M42.6296 91.5276C42.6296 100.527 36.7035 117.207 53.8082 105.794C64.5782 104.916 60.6274 100.134 60.6274 91.5276C60.6274 82.9211 63.7002 74.4078 52.5065 79.2364C47.1728 79.2364 39.7763 82.0898 42.6296 91.5276Z" fill="#D9D9D9"/>
<path d="M62.5279 78.1902C62.5279 77.0855 62.5279 76.5331 62.6815 76.0393C63.1205 74.6089 64.2911 74.0529 65.458 73.4713C66.7713 72.8128 67.4298 72.4872 68.0772 72.4324C68.8156 72.3651 69.556 72.5383 70.188 72.9262C71.0293 73.4384 71.6109 74.4187 72.2072 75.2125C74.9691 78.8779 76.3482 80.7106 76.853 82.7336C77.2606 84.3644 77.2606 86.0704 76.853 87.7012C76.1177 90.6497 73.7912 93.1189 72.0682 95.4088C71.1866 96.5794 70.744 97.1647 70.188 97.5049C69.5565 97.8941 68.816 98.0686 68.0772 98.0024C67.4298 97.9439 66.7713 97.6147 65.458 96.9635C64.2875 96.3782 63.1242 95.8259 62.6779 94.3919C62.5279 93.8981 62.5279 93.3457 62.5279 92.2409V78.1902ZM18.6308 78.1939C18.6308 76.8001 18.5942 75.5491 17.5663 74.5687C17.1895 74.2139 16.692 73.9651 15.7007 73.4713C14.3838 72.8165 13.729 72.4909 13.0778 72.4324C11.1281 72.2604 10.0782 73.7164 8.9515 75.2125C6.18965 78.8779 4.81055 80.7106 4.30573 82.7336C3.89809 84.3644 3.89809 86.0704 4.30573 87.7012C5.03735 90.6497 7.36755 93.1189 9.09051 95.4088C10.177 96.8501 11.2122 98.167 13.0778 97.9988C13.729 97.9439 14.3874 97.6147 15.7007 96.9599C16.692 96.466 17.1895 96.2209 17.5663 95.8625C18.5942 94.8857 18.6272 93.631 18.6272 92.2409L18.6308 78.1939Z" stroke="#141E8E" stroke-width="7" stroke-linecap="round" stroke-linejoin="round"/>
<path d="M69.9921 72.4178V68.2988C69.9921 52.4007 56.8852 39.5096 40.7274 39.5096C24.5696 39.5096 11.4626 52.4007 11.4626 68.2988V72.4141M40.7201 81.4313C36.1621 79.017 26.0877 74.9162 21.4639 76.1637C20.5859 76.5295 18.7715 77.7915 18.7715 82.0129L19.1227 103.877C19.1446 105.231 20.1909 106.339 21.5151 106.526C26.0255 107.162 33.7038 108.991 40.7201 112.671M40.7201 81.4313V112.671M40.7201 81.4313C45.2744 79.017 55.3524 74.9162 59.9762 76.1637C60.8542 76.5295 62.6686 77.7915 62.6686 82.0129L62.3211 103.877C62.3008 104.531 62.0492 105.156 61.611 105.641C61.1728 106.126 60.5766 106.439 59.9287 106.526C55.4183 107.162 47.7363 108.991 40.7201 112.671" stroke="#141E8E" stroke-width="7" stroke-linecap="round" stroke-linejoin="round"/>
<path d="M35.9517 61.833C38.1334 64.433 38.547 67.6778 36.8755 69.0803C35.2041 70.4828 32.0805 69.512 29.8988 66.912C27.7171 64.3119 27.3035 61.0672 28.9749 59.6647C30.6464 58.2622 33.77 59.2329 35.9517 61.833Z" fill="black"/>
<path d="M52.6326 66.8552C50.4509 69.4552 47.3273 70.426 45.6558 69.0235C43.9844 67.621 44.398 64.3762 46.5797 61.7762C48.7614 59.1762 51.885 58.2054 53.5565 59.6079C55.2279 61.0104 54.8143 64.2551 52.6326 66.8552Z" fill="black"/>
<circle cx="35.1284" cy="66.7258" r="1.31691" fill="white"/>
<path d="M48.3362 66.7258C48.3362 67.4531 47.7466 68.0427 47.0193 68.0427C46.292 68.0427 45.7024 67.4531 45.7024 66.7258C45.7024 65.9985 46.292 65.4089 47.0193 65.4089C47.7466 65.4089 48.3362 65.9985 48.3362 66.7258Z" fill="white"/>
<rect x="16.5684" y="30.3253" width="5.3878" height="16.9204" transform="rotate(-31.9605 16.5684 30.3253)" fill="#141E8E"/>
<circle cx="18.4642" cy="26.3187" r="6.58456" transform="rotate(8.03952 18.4642 26.3187)" fill="#141E8E"/>
<circle cx="18.7123" cy="26.1321" r="3.29228" transform="rotate(8.03952 18.7123 26.1321)" fill="#53FF95"/>
<circle cx="62.964" cy="26.2868" r="6.58456" transform="rotate(72.1389 62.964 26.2868)" fill="#141E8E"/>
<circle cx="62.8933" cy="26.0941" r="3.29228" transform="rotate(72.1389 62.8933 26.0941)" fill="#EDFF4A"/>
<path d="M62.5279 78.1902C62.5279 77.0855 62.5279 76.5331 62.6815 76.0393C63.1205 74.6089 64.2911 74.0529 65.458 73.4713C66.7713 72.8128 67.4298 72.4872 68.0772 72.4324C68.8156 72.3651 69.556 72.5383 70.188 72.9262C71.0293 73.4384 71.6109 74.4187 72.2072 75.2125C74.9691 78.8779 76.3482 80.7106 76.853 82.7336C77.2606 84.3644 77.2606 86.0704 76.853 87.7012C76.1177 90.6497 73.7912 93.1189 72.0682 95.4088C71.1866 96.5794 70.744 97.1647 70.188 97.5049C69.5565 97.8941 68.816 98.0686 68.0772 98.0024C67.4298 97.9439 66.7713 97.6147 65.458 96.9635C64.2875 96.3782 63.1242 95.8259 62.6779 94.3919C62.5279 93.8981 62.5279 93.3457 62.5279 92.2409V78.1902ZM18.6308 78.1939C18.6308 76.8001 18.5942 75.5491 17.5663 74.5687C17.1895 74.2139 16.692 73.9651 15.7007 73.4713C14.3838 72.8165 13.729 72.4909 13.0778 72.4324C11.1281 72.2604 10.0782 73.7164 8.9515 75.2125C6.18965 78.8779 4.81055 80.7106 4.30573 82.7336C3.89809 84.3644 3.89809 86.0704 4.30573 87.7012C5.03735 90.6497 7.36755 93.1189 9.09051 95.4088C10.177 96.8501 11.2122 98.167 13.0778 97.9988C13.729 97.9439 14.3874 97.6147 15.7007 96.9599C16.692 96.466 17.1895 96.2209 17.5663 95.8625C18.5942 94.8857 18.6272 93.631 18.6272 92.2409L18.6308 78.1939Z" stroke="#141E8E" stroke-width="7" stroke-linecap="round" stroke-linejoin="round"/>
<path d="M69.9921 72.4178V68.2988C69.9921 52.4007 56.8852 39.5096 40.7274 39.5096C24.5696 39.5096 11.4626 52.4007 11.4626 68.2988V72.4141M40.7201 81.4313C36.1621 79.017 26.0877 74.9162 21.4639 76.1637C20.5859 76.5295 18.7715 77.7915 18.7715 82.0129L19.1227 103.877C19.1446 105.231 20.1909 106.339 21.5151 106.526C26.0255 107.162 33.7038 108.991 40.7201 112.671M40.7201 81.4313V112.671M40.7201 81.4313C45.2744 79.017 55.3524 74.9162 59.9762 76.1637C60.8542 76.5295 62.6686 77.7915 62.6686 82.0129L62.3211 103.877C62.3008 104.531 62.0492 105.156 61.611 105.641C61.1728 106.126 60.5766 106.439 59.9287 106.526C55.4183 107.162 47.7363 108.991 40.7201 112.671" stroke="#141E8E" stroke-width="7" stroke-linecap="round" stroke-linejoin="round"/>
<path d="M35.9517 61.833C38.1334 64.433 38.547 67.6778 36.8755 69.0803C35.2041 70.4828 32.0805 69.512 29.8988 66.912C27.7171 64.3119 27.3035 61.0672 28.9749 59.6647C30.6464 58.2622 33.77 59.2329 35.9517 61.833Z" fill="black"/>
<path d="M52.6326 66.8552C50.4509 69.4552 47.3273 70.426 45.6558 69.0235C43.9844 67.621 44.398 64.3762 46.5797 61.7762C48.7614 59.1762 51.885 58.2054 53.5565 59.6079C55.2279 61.0104 54.8143 64.2551 52.6326 66.8552Z" fill="black"/>
<circle cx="35.1284" cy="66.7258" r="1.31691" fill="#D9D9D9"/>
<path d="M48.3362 66.7258C48.3362 67.4531 47.7466 68.0427 47.0193 68.0427C46.292 68.0427 45.7024 67.4531 45.7024 66.7258C45.7024 65.9985 46.292 65.4089 47.0193 65.4089C47.7466 65.4089 48.3362 65.9985 48.3362 66.7258Z" fill="#D9D9D9"/>
<circle cx="18.4642" cy="26.3187" r="6.58456" transform="rotate(8.03952 18.4642 26.3187)" fill="#141E8E"/>
<circle cx="18.7123" cy="26.1321" r="3.29228" transform="rotate(8.03952 18.7123 26.1321)" fill="#D9D9D9"/>
<rect x="58.6541" y="26.7794" width="5.31389" height="16.9204" transform="rotate(32.1389 58.6541 26.7794)" fill="#141E8E"/>
<circle cx="62.964" cy="26.2868" r="6.58456" transform="rotate(72.1389 62.964 26.2868)" fill="#141E8E"/>
<circle cx="62.8933" cy="26.0941" r="3.29228" transform="rotate(72.1389 62.8933 26.0941)" fill="#D9D9D9"/>
<path d="M151 24C151 36.6645 140.294 47 127 47C113.706 47 103 36.6645 103 24C103 11.3355 113.706 1 127 1C140.294 1 151 11.3355 151 24Z" fill="#F5F5F5" stroke="#D9D9D9" stroke-width="2"/>
<circle cx="100" cy="46" r="7" fill="#F5F5F5" stroke="#D9D9D9" stroke-width="2"/>
<circle cx="87" cy="54" r="4" fill="#F5F5F5" stroke="#D9D9D9" stroke-width="2"/>
<path d="M124.667 21.6667C124.667 22.0203 124.526 22.3594 124.276 22.6095C124.026 22.8595 123.687 23 123.333 23H114.667C114.313 23 113.974 22.8595 113.724 22.6095C113.474 22.3594 113.333 22.0203 113.333 21.6667V15.1043C113.333 14.368 115.264 13 116 13H122.875C123.906 13 124.667 13.7707 124.667 14.7917V21.6667Z" fill="#A0041E"/>
<path d="M124 23C124 23.3536 123.86 23.6928 123.609 23.9428C123.359 24.1929 123.02 24.3333 122.667 24.3333H115.333C114.98 24.3333 114.641 24.1929 114.391 23.9428C114.14 23.6928 114 23.3536 114 23V15C114 13.627 113.993 13.6667 115.667 13.6667H122.667C123.02 13.6667 123.359 13.8071 123.609 14.0572C123.86 14.3072 124 14.6464 124 15V23Z" fill="#CCD6DD"/>
<path d="M123.333 23.3333C123.333 23.5985 123.228 23.8529 123.04 24.0404C122.853 24.228 122.598 24.3333 122.333 24.3333H114.333C114.068 24.3333 113.814 24.228 113.626 24.0404C113.439 23.8529 113.333 23.5985 113.333 23.3333V15.3333C113.333 15.0681 113.439 14.8138 113.626 14.6262C113.814 14.4387 114.068 14.3333 114.333 14.3333H122.333C122.598 14.3333 122.853 14.4387 123.04 14.6262C123.228 14.8138 123.333 15.0681 123.333 15.3333V23.3333Z" fill="#E1E8ED"/>
<path d="M123.333 23.6667C123.333 24.0203 123.193 24.3594 122.943 24.6095C122.693 24.8595 122.354 25 122 25H115C114.646 25 114.307 24.8595 114.057 24.6095C113.807 24.3594 113.667 24.0203 113.667 23.6667V16.3333C113.667 15.9797 113.807 15.6406 114.057 15.3905C114.307 15.1405 114.646 15 115 15H122C122.354 15 122.693 15.1405 122.943 15.3905C123.193 15.6406 123.333 15.9797 123.333 16.3333V23.6667Z" fill="#BE1931"/>
<path d="M122.667 23.6667C122.667 24.0203 122.526 24.3594 122.276 24.6095C122.026 24.8595 121.687 25 121.333 25H115C114.646 25 114.307 24.8595 114.057 24.6095C113.807 24.3594 113.667 24.0203 113.667 23.6667V17C113.667 16.6464 113.807 16.3072 114.057 16.0572C114.307 15.8071 114.646 15.6667 115 15.6667H121.445C122.181 15.6667 122.667 16.152 122.667 16.8883V23.6667Z" fill="#DD2E44"/>
<path d="M115 15C114.437 15 114.423 14.3593 114.667 14.0833C114.944 13.7697 115.375 13.6667 116.146 13.6667H116.667V13H115.76C114.437 13 113.333 13.8333 113.333 14.7917V23.6667C113.333 24.0203 113.474 24.3594 113.724 24.6095C113.974 24.8595 114.313 25 114.667 25H115.333V15H115Z" fill="#A0041E"/>
<path d="M142.741 24.1993C142.525 23.499 142.172 22.1797 141.966 21.6773C141.799 21.272 141.643 20.8647 141.451 20.6727C141.259 20.4807 140.933 20.496 140.737 20.692C140.737 20.692 139.914 21.2503 139.619 21.6197C139.249 21.9137 138.69 22.7387 138.69 22.7387C138.494 22.9353 138.479 23.261 138.67 23.453C138.862 23.6447 139.27 23.8007 139.675 23.9677C140.177 24.1743 141.497 24.5263 142.197 24.7427C142.317 24.7793 142.777 24.319 142.741 24.1993Z" fill="#D99E82"/>
<path d="M135.548 14.7693C135.639 14.8605 135.711 14.9688 135.761 15.088C135.81 15.2071 135.836 15.3348 135.836 15.4638C135.836 15.5928 135.81 15.7205 135.761 15.8397C135.711 15.9589 135.639 16.0671 135.548 16.1583L134.159 17.5477C133.974 17.7316 133.725 17.8349 133.464 17.8349C133.204 17.8349 132.954 17.7316 132.77 17.5477L131.38 16.1583C131.197 15.974 131.093 15.7242 131.093 15.4638C131.093 15.2034 131.197 14.9537 131.38 14.7693L132.769 13.3803C132.861 13.2891 132.969 13.2167 133.088 13.1674C133.207 13.118 133.335 13.0926 133.464 13.0926C133.593 13.0926 133.721 13.118 133.84 13.1674C133.959 13.2167 134.067 13.2891 134.158 13.3803L135.548 14.7693Z" fill="#EA596E"/>
<path d="M141.451 20.6727L140.061 22.0627L138.673 23.451L133.464 18.242L136.242 15.464L141.451 20.6727Z" fill="#FFCC4D"/>
<path d="M141.693 24.5877C141.693 24.5877 142.596 25.084 142.84 24.84C143.084 24.596 142.585 23.695 142.585 23.695C142.585 23.695 141.729 23.711 141.693 24.5877Z" fill="#292F33"/>
<path d="M131.728 16.5057L134.506 13.7273L136.242 15.4637L133.464 18.242L131.728 16.5057Z" fill="#CCD6DD"/>
<path d="M132.075 16.8527L134.853 14.0747L135.2 14.422L132.422 17.2L132.075 16.8527ZM132.769 17.548L135.548 14.7697L135.895 15.117L133.117 17.895L132.769 17.548Z" fill="#99AAB5"/>
<path d="M134 36C134 39.3137 131.314 42 128 42C124.686 42 122 39.3137 122 36C122 32.6863 124.686 30 128 30C131.314 30 134 32.6863 134 36Z" fill="#FFCC4D"/>
<path d="M128 37C126.792 37 125.991 36.8593 125 36.6667C124.774 36.623 124.333 36.6667 124.333 37.3333C124.333 38.6667 125.865 40.3333 128 40.3333C130.135 40.3333 131.667 38.6667 131.667 37.3333C131.667 36.6667 131.226 36.6227 131 36.6667C130.009 36.8593 129.208 37 128 37Z" fill="#664500"/>
<path d="M125 37.3333C125 37.3333 126 37.6667 128 37.6667C130 37.6667 131 37.3333 131 37.3333C131 37.3333 130.333 38.6667 128 38.6667C125.667 38.6667 125 37.3333 125 37.3333Z" fill="white"/>
<path d="M127.227 31.471L125.713 31.738L124.933 30.3203C124.891 30.2444 124.826 30.1835 124.748 30.1462C124.67 30.1088 124.582 30.0969 124.496 30.1119C124.411 30.127 124.332 30.1684 124.271 30.2303C124.21 30.2922 124.17 30.3716 124.156 30.4573L123.908 32.0563L122.394 32.3233C122.307 32.3387 122.227 32.3813 122.166 32.4451C122.104 32.5088 122.065 32.5904 122.053 32.6781C122.041 32.7657 122.058 32.8548 122.1 32.9325C122.142 33.0102 122.208 33.0725 122.288 33.1103L123.645 33.7543L123.395 35.3583C123.386 35.4177 123.39 35.4784 123.407 35.5361C123.423 35.5939 123.452 35.6474 123.491 35.693C123.53 35.7386 123.579 35.7753 123.633 35.8005C123.688 35.8257 123.747 35.8388 123.807 35.839C123.916 35.839 124.024 35.7963 124.104 35.715L125.275 34.528L126.781 35.243C126.86 35.2807 126.95 35.2922 127.036 35.2759C127.123 35.2596 127.202 35.2163 127.262 35.1522C127.323 35.0881 127.361 35.0065 127.372 34.9192C127.384 34.8318 127.367 34.7432 127.324 34.666L126.542 33.2433L127.597 32.174C127.658 32.1109 127.698 32.0299 127.711 31.9426C127.724 31.8553 127.709 31.7663 127.668 31.6882C127.627 31.6101 127.562 31.547 127.483 31.508C127.404 31.469 127.314 31.456 127.227 31.471ZM128.773 31.471L130.287 31.738L131.067 30.3203C131.109 30.2444 131.174 30.1834 131.252 30.146C131.33 30.1086 131.418 30.0966 131.504 30.1117C131.589 30.1268 131.668 30.1682 131.729 30.2302C131.79 30.2921 131.83 30.3716 131.843 30.4573L132.092 32.0563L133.606 32.3233C133.784 32.3547 133.922 32.498 133.946 32.6777C133.97 32.8573 133.876 33.032 133.712 33.11L132.355 33.754L132.604 35.358C132.613 35.4174 132.61 35.478 132.593 35.5358C132.577 35.5935 132.548 35.6471 132.509 35.6927C132.47 35.7383 132.421 35.775 132.367 35.8002C132.312 35.8254 132.253 35.8385 132.193 35.8387C132.084 35.8387 131.976 35.796 131.896 35.7147L130.725 34.5277L129.219 35.2427C129.139 35.2804 129.05 35.2919 128.963 35.2756C128.877 35.2593 128.798 35.2159 128.737 35.1519C128.677 35.0878 128.638 35.0062 128.627 34.9188C128.616 34.8315 128.633 34.7429 128.675 34.6657L129.458 33.2433L128.403 32.174C128.341 32.1111 128.3 32.0301 128.287 31.9426C128.274 31.8552 128.29 31.7659 128.331 31.6877C128.372 31.6096 128.437 31.5467 128.517 31.5078C128.596 31.4689 128.686 31.456 128.773 31.471Z" fill="#E95F28"/>
</svg>
