<svg width="107" height="99" viewBox="0 0 107 99" fill="none" xmlns="http://www.w3.org/2000/svg">
<path d="M39.9956 72.6497C36.4839 80.7706 46.5802 99.4269 27.2655 88.8916C21.9319 88.8916 19.803 83.185 19.803 72.6497C19.803 64.3092 21.3394 56.1883 27.2655 60.139C33.1916 61.6754 41.3126 63.2118 39.9956 72.6497Z" fill="#D9D9D9"/>
<path d="M42.6296 73.5276C42.6296 82.5265 36.7035 99.2074 53.8082 87.7942C64.5782 86.9163 60.6274 82.1341 60.6274 73.5276C60.6274 64.9211 63.7002 56.4078 52.5065 61.2364C47.1728 61.2364 39.7763 64.0898 42.6296 73.5276Z" fill="#D9D9D9"/>
<path d="M62.5279 60.1902C62.5279 59.0855 62.5279 58.5331 62.6815 58.0393C63.1205 56.6089 64.2911 56.0529 65.458 55.4713C66.7713 54.8128 67.4298 54.4872 68.0772 54.4324C68.8156 54.3651 69.556 54.5383 70.188 54.9262C71.0293 55.4384 71.6109 56.4187 72.2072 57.2125C74.9691 60.8779 76.3482 62.7106 76.853 64.7336C77.2606 66.3644 77.2606 68.0704 76.853 69.7012C76.1177 72.6497 73.7912 75.1189 72.0682 77.4088C71.1866 78.5794 70.744 79.1647 70.188 79.5049C69.5565 79.8941 68.816 80.0686 68.0772 80.0024C67.4298 79.9439 66.7713 79.6147 65.458 78.9635C64.2875 78.3782 63.1242 77.8259 62.6779 76.3919C62.5279 75.8981 62.5279 75.3457 62.5279 74.2409V60.1902ZM18.6308 60.1939C18.6308 58.8001 18.5942 57.5491 17.5663 56.5687C17.1895 56.2139 16.692 55.9651 15.7007 55.4713C14.3838 54.8165 13.729 54.4909 13.0778 54.4324C11.1281 54.2604 10.0782 55.7164 8.9515 57.2125C6.18965 60.8779 4.81055 62.7106 4.30573 64.7336C3.89809 66.3644 3.89809 68.0704 4.30573 69.7012C5.03735 72.6497 7.36755 75.1189 9.09051 77.4088C10.177 78.8501 11.2122 80.167 13.0778 79.9988C13.729 79.9439 14.3874 79.6147 15.7007 78.9599C16.692 78.466 17.1895 78.2209 17.5663 77.8625C18.5942 76.8857 18.6272 75.631 18.6272 74.2409L18.6308 60.1939Z" stroke="#141E8E" stroke-width="7" stroke-linecap="round" stroke-linejoin="round"/>
<path d="M69.9921 54.4178V50.2988C69.9921 34.4007 56.8852 21.5096 40.7274 21.5096C24.5696 21.5096 11.4626 34.4007 11.4626 50.2988V54.4141M40.7201 63.4313C36.1621 61.017 26.0877 56.9162 21.4639 58.1637C20.5859 58.5295 18.7715 59.7915 18.7715 64.0129L19.1227 85.8773C19.1446 87.2308 20.1909 88.3392 21.5151 88.5258C26.0255 89.1623 33.7038 90.9914 40.7201 94.6714M40.7201 63.4313V94.6714M40.7201 63.4313C45.2744 61.017 55.3524 56.9162 59.9762 58.1637C60.8542 58.5295 62.6686 59.7915 62.6686 64.0129L62.3211 85.8773C62.3008 86.5307 62.0492 87.1556 61.611 87.6407C61.1728 88.1257 60.5766 88.4394 59.9287 88.5258C55.4183 89.1623 47.7363 90.9914 40.7201 94.6714" stroke="#141E8E" stroke-width="7" stroke-linecap="round" stroke-linejoin="round"/>
<path d="M35.9517 43.833C38.1334 46.433 38.547 49.6778 36.8755 51.0803C35.2041 52.4828 32.0805 51.512 29.8988 48.912C27.7171 46.3119 27.3035 43.0672 28.9749 41.6647C30.6464 40.2622 33.77 41.2329 35.9517 43.833Z" fill="black"/>
<path d="M52.6326 48.8552C50.4509 51.4552 47.3273 52.426 45.6558 51.0235C43.9844 49.621 44.398 46.3762 46.5797 43.7762C48.7614 41.1762 51.885 40.2054 53.5565 41.6079C55.2279 43.0104 54.8143 46.2551 52.6326 48.8552Z" fill="black"/>
<circle cx="35.1284" cy="48.7258" r="1.31691" fill="white"/>
<path d="M48.3362 48.7258C48.3362 49.4531 47.7466 50.0427 47.0193 50.0427C46.292 50.0427 45.7024 49.4531 45.7024 48.7258C45.7024 47.9985 46.292 47.4089 47.0193 47.4089C47.7466 47.4089 48.3362 47.9985 48.3362 48.7258Z" fill="white"/>
<rect x="16.5684" y="12.3253" width="5.3878" height="16.9204" transform="rotate(-31.9605 16.5684 12.3253)" fill="#141E8E"/>
<circle cx="18.4642" cy="8.31869" r="6.58456" transform="rotate(8.03952 18.4642 8.31869)" fill="#141E8E"/>
<circle cx="18.7123" cy="8.13205" r="3.29228" transform="rotate(8.03952 18.7123 8.13205)" fill="#53FF95"/>
<circle cx="62.964" cy="8.28676" r="6.58456" transform="rotate(72.1389 62.964 8.28676)" fill="#141E8E"/>
<circle cx="62.8933" cy="8.09411" r="3.29228" transform="rotate(72.1389 62.8933 8.09411)" fill="#EDFF4A"/>
<path d="M62.5279 60.1902C62.5279 59.0855 62.5279 58.5331 62.6815 58.0393C63.1205 56.6089 64.2911 56.0529 65.458 55.4713C66.7713 54.8128 67.4298 54.4872 68.0772 54.4324C68.8156 54.3651 69.556 54.5383 70.188 54.9262C71.0293 55.4384 71.6109 56.4187 72.2072 57.2125C74.9691 60.8779 76.3482 62.7106 76.853 64.7336C77.2606 66.3644 77.2606 68.0704 76.853 69.7012C76.1177 72.6497 73.7912 75.1189 72.0682 77.4088C71.1866 78.5794 70.744 79.1647 70.188 79.5049C69.5565 79.8941 68.816 80.0686 68.0772 80.0024C67.4298 79.9439 66.7713 79.6147 65.458 78.9635C64.2875 78.3782 63.1242 77.8259 62.6779 76.3919C62.5279 75.8981 62.5279 75.3457 62.5279 74.2409V60.1902ZM18.6308 60.1939C18.6308 58.8001 18.5942 57.5491 17.5663 56.5687C17.1895 56.2139 16.692 55.9651 15.7007 55.4713C14.3838 54.8165 13.729 54.4909 13.0778 54.4324C11.1281 54.2604 10.0782 55.7164 8.9515 57.2125C6.18965 60.8779 4.81055 62.7106 4.30573 64.7336C3.89809 66.3644 3.89809 68.0704 4.30573 69.7012C5.03735 72.6497 7.36755 75.1189 9.09051 77.4088C10.177 78.8501 11.2122 80.167 13.0778 79.9988C13.729 79.9439 14.3874 79.6147 15.7007 78.9599C16.692 78.466 17.1895 78.2209 17.5663 77.8625C18.5942 76.8857 18.6272 75.631 18.6272 74.2409L18.6308 60.1939Z" stroke="#141E8E" stroke-width="7" stroke-linecap="round" stroke-linejoin="round"/>
<path d="M69.9921 54.4178V50.2988C69.9921 34.4007 56.8852 21.5096 40.7274 21.5096C24.5696 21.5096 11.4626 34.4007 11.4626 50.2988V54.4141M40.7201 63.4313C36.1621 61.017 26.0877 56.9162 21.4639 58.1637C20.5859 58.5295 18.7715 59.7915 18.7715 64.0129L19.1227 85.8773C19.1446 87.2308 20.1909 88.3392 21.5151 88.5258C26.0255 89.1623 33.7038 90.9914 40.7201 94.6714M40.7201 63.4313V94.6714M40.7201 63.4313C45.2744 61.017 55.3524 56.9162 59.9762 58.1637C60.8542 58.5295 62.6686 59.7915 62.6686 64.0129L62.3211 85.8773C62.3008 86.5307 62.0492 87.1556 61.611 87.6407C61.1728 88.1257 60.5766 88.4394 59.9287 88.5258C55.4183 89.1623 47.7363 90.9914 40.7201 94.6714" stroke="#141E8E" stroke-width="7" stroke-linecap="round" stroke-linejoin="round"/>
<path d="M35.9517 43.833C38.1334 46.433 38.547 49.6778 36.8755 51.0803C35.2041 52.4828 32.0805 51.512 29.8988 48.912C27.7171 46.3119 27.3035 43.0672 28.9749 41.6647C30.6464 40.2622 33.77 41.2329 35.9517 43.833Z" fill="black"/>
<path d="M52.6326 48.8552C50.4509 51.4552 47.3273 52.426 45.6558 51.0235C43.9844 49.621 44.398 46.3762 46.5797 43.7762C48.7614 41.1762 51.885 40.2054 53.5565 41.6079C55.2279 43.0104 54.8143 46.2551 52.6326 48.8552Z" fill="black"/>
<circle cx="35.1284" cy="48.7258" r="1.31691" fill="#D9D9D9"/>
<path d="M48.3362 48.7258C48.3362 49.4531 47.7466 50.0427 47.0193 50.0427C46.292 50.0427 45.7024 49.4531 45.7024 48.7258C45.7024 47.9985 46.292 47.4089 47.0193 47.4089C47.7466 47.4089 48.3362 47.9985 48.3362 48.7258Z" fill="#D9D9D9"/>
<circle cx="18.4642" cy="8.31869" r="6.58456" transform="rotate(8.03952 18.4642 8.31869)" fill="#141E8E"/>
<circle cx="18.7123" cy="8.13205" r="3.29228" transform="rotate(8.03952 18.7123 8.13205)" fill="#D9D9D9"/>
<rect x="58.6541" y="8.77942" width="5.31389" height="16.9204" transform="rotate(32.1389 58.6541 8.77942)" fill="#141E8E"/>
<circle cx="62.964" cy="8.28676" r="6.58456" transform="rotate(72.1389 62.964 8.28676)" fill="#141E8E"/>
<circle cx="62.8933" cy="8.09411" r="3.29228" transform="rotate(72.1389 62.8933 8.09411)" fill="#D9D9D9"/>
<path d="M92.8523 31.1506V30.7159C92.8608 29.2244 92.9929 28.0355 93.2486 27.1491C93.5128 26.2628 93.8963 25.5469 94.3991 25.0014C94.902 24.456 95.5071 23.9616 96.2145 23.5185C96.7429 23.1776 97.2159 22.8239 97.6335 22.4574C98.0511 22.0909 98.3835 21.6861 98.6307 21.2429C98.8778 20.7912 99.0014 20.2884 99.0014 19.7344C99.0014 19.1463 98.8608 18.6307 98.5795 18.1875C98.2983 17.7443 97.919 17.4034 97.4418 17.1648C96.973 16.9261 96.4531 16.8068 95.8821 16.8068C95.3281 16.8068 94.804 16.9304 94.3097 17.1776C93.8153 17.4162 93.4105 17.7741 93.0952 18.2514C92.7798 18.7202 92.6094 19.304 92.5838 20.0028H87.3679C87.4105 18.2983 87.8196 16.892 88.5952 15.7841C89.3707 14.6676 90.3977 13.8366 91.6761 13.2912C92.9545 12.7372 94.3651 12.4602 95.9077 12.4602C97.6037 12.4602 99.1037 12.7415 100.408 13.304C101.712 13.858 102.734 14.6634 103.476 15.7202C104.217 16.777 104.588 18.0511 104.588 19.5426C104.588 20.5398 104.422 21.4261 104.089 22.2017C103.766 22.9687 103.31 23.6506 102.722 24.2472C102.134 24.8352 101.439 25.3679 100.638 25.8452C99.9645 26.2457 99.4105 26.6634 98.9759 27.098C98.5497 27.5327 98.2301 28.0355 98.017 28.6065C97.8125 29.1776 97.706 29.8807 97.6974 30.7159V31.1506H92.8523ZM95.3835 39.3324C94.5312 39.3324 93.8026 39.0341 93.1974 38.4375C92.6009 37.8324 92.3068 37.108 92.3153 36.2642C92.3068 35.429 92.6009 34.7131 93.1974 34.1165C93.8026 33.5199 94.5312 33.2216 95.3835 33.2216C96.1932 33.2216 96.9048 33.5199 97.5185 34.1165C98.1321 34.7131 98.4432 35.429 98.4517 36.2642C98.4432 36.8267 98.294 37.3423 98.0043 37.8111C97.723 38.2713 97.3523 38.642 96.892 38.9233C96.4318 39.196 95.929 39.3324 95.3835 39.3324Z" fill="#D9D9D9"/>
</svg>
